<svg width="17" height="16" viewBox="0 0 17 16" fill="none" xmlns="http://www.w3.org/2000/svg">
<g opacity="0.8">
<path fill-rule="evenodd" clip-rule="evenodd" d="M1.9223 4.1223C3.12098 4.1223 3.86767 3.33641 3.86767 2.35458C3.84564 1.352 3.12098 0.587891 1.94537 0.587891C0.768709 0.587891 0 1.352 0 2.35458C0 3.33641 0.746686 4.1223 1.90027 4.1223H1.9223ZM3.64114 15.7457V5.51782H0.203451V15.7447H3.64114V15.7457Z" fill="white"/>
<path fill-rule="evenodd" clip-rule="evenodd" d="M5.54492 15.7448H8.98366V10.0331C8.98366 9.72724 9.00568 9.42138 9.09692 9.20366C9.34547 8.59299 9.91073 7.96055 10.8609 7.96055C12.1057 7.96055 12.6028 8.89884 12.6028 10.2736V15.7448H16.0415V9.88068C16.0415 6.73921 14.3457 5.27734 12.0826 5.27734C10.2274 5.27734 9.41364 6.30273 8.96059 7.00048H8.98366V5.51684H5.54492C5.59002 6.47691 5.54492 15.7448 5.54492 15.7448Z" fill="white"/>
</g>
</svg>
