<svg width="19" height="14" viewBox="0 0 19 14" fill="none" xmlns="http://www.w3.org/2000/svg">
<g opacity="0.8">
<path d="M18.6875 3.64214C18.6875 3.64214 18.5031 2.41755 17.9369 1.87783C17.2189 1.16985 16.4148 1.1663 16.0455 1.12482C13.4047 0.945312 9.44254 0.945312 9.44254 0.945312H9.43436C9.43436 0.945312 5.47223 0.945312 2.83081 1.12482C2.46209 1.1663 1.65734 1.16985 0.939409 1.87783C0.373121 2.41755 0.188763 3.64214 0.188763 3.64214C0.188763 3.64214 0 5.08061 0 6.51849V7.80766C0 9.24613 0.188763 10.684 0.188763 10.684C0.188763 10.684 0.373121 11.9086 0.93878 12.4483C1.65671 13.1563 2.59989 13.1338 3.0202 13.2078C4.5303 13.3447 9.43813 13.3868 9.43813 13.3868C9.43813 13.3868 13.4047 13.3808 16.0461 13.2013C16.4148 13.1599 17.2196 13.1563 17.9375 12.4483C18.5038 11.9092 18.6881 10.684 18.6881 10.684C18.6881 10.684 18.8769 9.24554 18.8769 7.80766V6.51849C18.8763 5.08061 18.6875 3.64214 18.6875 3.64214ZM7.48947 9.50088L7.48884 4.50712L12.5892 7.01259L7.48947 9.50088Z" fill="white"/>
</g>
</svg>
