<svg width="17" height="14" viewBox="0 0 17 14" fill="none" xmlns="http://www.w3.org/2000/svg">
<path opacity="0.8" d="M16.0422 2.24777C15.4518 2.50697 14.8173 2.68115 14.1524 2.75994C14.832 2.35767 15.3543 1.72005 15.5997 0.960081C14.9641 1.33332 14.2594 1.60393 13.5096 1.75011C12.9086 1.11767 12.0539 0.722656 11.107 0.722656C9.28953 0.722656 7.81608 2.17934 7.81608 3.9761C7.81608 4.23115 7.84545 4.47997 7.90103 4.7174C5.16598 4.58158 2.74134 3.28663 1.11793 1.31777C0.834778 1.79884 0.672227 2.35767 0.672227 2.95382C0.672227 4.08288 1.25322 5.0782 2.13623 5.66191C1.59719 5.64532 1.08962 5.49914 0.646009 5.25549C0.646009 5.26897 0.646009 5.28245 0.646009 5.29696C0.646009 6.87288 1.78072 8.18856 3.28563 8.48716C3.00982 8.56181 2.71827 8.60121 2.41834 8.60121C2.2065 8.60121 1.9999 8.58047 1.7996 8.54315C2.21803 9.83602 3.4335 10.7764 4.87338 10.8023C3.74706 11.6753 2.32815 12.1957 0.785488 12.1957C0.520163 12.1957 0.257984 12.1802 0 12.1501C1.45667 13.0739 3.186 13.612 5.04537 13.612C11.0986 13.612 14.4094 8.65408 14.4094 4.35452C14.4094 4.21352 14.4062 4.07355 14.3999 3.93359C15.0438 3.47429 15.6018 2.90095 16.0422 2.24777Z" fill="white"/>
</svg>
