<svg width="18" height="18" viewBox="0 0 18 18" fill="none" xmlns="http://www.w3.org/2000/svg">
<circle cx="9" cy="9" r="9" fill="url(#paint0_linear_182_2460)"/>
<g clip-path="url(#clip0_182_2460)">
<path d="M12.2452 7.33393C11.4323 5.29689 10.0968 3.75368 9.4 4.00059C8.23871 4.49442 10.0968 6.8401 4.46452 9.30924C4 9.55615 3.88387 10.3586 4.11613 10.8524C4.29032 11.3463 4.9871 11.8401 5.45161 11.6549C5.50968 11.5932 5.85806 11.5315 5.85806 11.5315C6.20645 12.0253 6.55484 11.7166 6.67097 12.0253C6.84516 12.3957 7.13548 13.1981 7.25161 13.5068C7.36774 13.8154 7.6 14.0623 7.83226 13.9389C8.00645 13.8771 8.64516 13.6302 8.87742 13.5068C9.10968 13.3833 9.16774 13.1981 9.10968 13.0129C9.05161 12.8278 8.70323 12.766 8.5871 12.5191C8.47097 12.2722 8.18064 11.5315 8.12258 11.3463C8.00645 11.0376 8.23871 10.7907 8.64516 10.729C11.2 10.4203 11.6645 12.1487 12.5355 11.7166C13.2323 11.4697 13.0581 9.37096 12.2452 7.33393ZM11.9548 10.6673C11.7806 10.729 10.7935 9.86479 10.1548 8.32158C9.51613 6.71664 9.57419 5.29689 9.74839 5.23516C9.92258 5.17343 10.8516 6.16109 11.4903 7.76603C12.1871 9.30924 12.129 10.6055 11.9548 10.6673Z" fill="white"/>
</g>
<defs>
<linearGradient id="paint0_linear_182_2460" x1="16.5273" y1="6.92308" x2="0.126379" y2="5.61519" gradientUnits="userSpaceOnUse">
<stop stop-color="#38BA93"/>
<stop offset="0.980666" stop-color="#49D288"/>
</linearGradient>
<clipPath id="clip0_182_2460">
<rect width="9" height="10" fill="white" transform="translate(4 4)"/>
</clipPath>
</defs>
</svg>
