<svg width="295" height="74" viewBox="0 0 295 74" fill="none" xmlns="http://www.w3.org/2000/svg">
<path d="M70.4276 68.9021C71.1558 68.5225 71.6245 67.9321 71.8545 67.7022C74.9706 64.7583 76.9282 60.5534 76.9282 55.9054V38.5719C76.9282 34.263 75.2449 30.333 72.5154 27.437C72.888 27.3036 73.3042 27.0538 73.6931 26.7081C74.0524 26.3875 74.3333 26.0351 74.513 25.7049C76.1431 27.0427 78.3477 27.8704 80.7666 27.8704H102.936C107.922 27.8704 112.001 24.3635 112.001 20.0782V8.79078C112.001 4.50548 107.922 1 102.936 1H80.7666C75.7794 1 71.7022 4.50548 71.7022 8.79078V20.0775C71.7022 21.7521 72.3254 23.3065 73.3811 24.5809C73.0558 24.7239 72.7091 24.948 72.3801 25.2399C71.9543 25.6187 71.6386 26.0433 71.4737 26.4243C68.7014 23.9684 65.0892 22.4773 61.1517 22.4773H17.776C9.1004 22.4773 2.00098 29.719 2.00098 38.5719V55.9054C2.00098 64.7583 9.1004 72 17.776 72H61.151C64.6109 72 67.8194 70.8472 70.4276 68.9021Z" fill="url(#paint0_linear_139_240)"/>
<path d="M121.001 58.3412C121.001 62.2372 119.253 64.7546 115.748 65.8814C113.427 66.6279 110.16 67 105.961 67H84.2789C82.8158 67 82.0846 66.2453 82.0846 64.7359V64.0178C82.0846 62.5077 82.8158 61.7522 84.2789 61.7522H105.961C111.807 61.7522 114.725 60.6523 114.725 58.4525V55.4232C114.725 53.0747 111.834 51.9008 106.043 51.9008H97.7636C87.2528 51.9008 82.001 49.1122 82.001 43.5484V40.9301C82.001 37.2096 83.7303 34.6758 87.1977 33.3144C89.4214 32.4379 92.7326 32 97.1417 32H100.334C101.816 32 102.558 32.7465 102.558 34.2372V34.9545C102.558 36.4647 101.816 37.2201 100.334 37.2201H97.0684C91.2035 37.2201 88.2773 38.4418 88.2773 40.8748V43.307C88.2773 44.8351 89.5769 45.8229 92.1657 46.2795C93.199 46.458 95.0281 46.5492 97.6544 46.5492H106.043C109.775 46.5492 112.94 47.0812 115.529 48.1341C119.18 49.6255 121 51.9838 121 55.2088V58.3412H121.001Z" fill="#0095DA"/>
<path d="M157.763 65.6412C157.763 66.5473 157.323 67 156.443 67H155.507C154.616 67 154.17 66.5473 154.17 65.6412V55.4515C154.17 54.1703 152.833 53.533 150.156 53.533H147.791C145.404 53.533 144.211 54.333 144.211 55.9268V65.6412C144.211 66.5473 143.764 67 142.875 67H141.939C141.048 67 140.603 66.5473 140.603 65.6412V55.8756C140.603 54.9032 140.261 54.2433 139.585 53.8908C139.112 53.6513 138.336 53.533 137.247 53.533H134.883C132.012 53.533 130.577 54.1816 130.577 55.4854V65.6404C130.577 66.5466 130.137 66.9992 129.257 66.9992H128.321C127.441 66.9992 127.001 66.5466 127.001 65.6404V55.859C127.001 52.2631 129.603 50.4681 134.802 50.4681H137.248C139.228 50.4681 140.978 50.9382 142.5 51.8782C144.029 50.9382 145.784 50.4681 147.775 50.4681H150.256C155.261 50.4681 157.764 52.2631 157.764 55.859V65.6412H157.763ZM185.982 62.034C185.982 65.3452 183.54 67 178.651 67H169.9C169.054 67 168.129 66.8825 167.128 66.6422C163.883 65.8649 162.262 64.3886 162.262 62.2178V60.1042C162.262 58.3883 163.142 57.0958 164.902 56.2236C166.244 55.5585 167.861 55.2225 169.758 55.2225H182.408C182.226 54.0987 180.824 53.5338 178.2 53.5338H175.499C174.625 53.5338 174.185 53.0864 174.185 52.1915V51.8292C174.185 50.9216 174.625 50.4689 175.504 50.4689H177.473C183.144 50.4689 185.981 52.1637 185.981 55.5464V62.034H185.982ZM182.407 62.2178V58.2882H169.691C169.008 58.2882 168.277 58.4094 167.479 58.6618C166.385 59.0128 165.836 59.4896 165.836 60.0884V62.1846C165.836 62.8731 166.473 63.3596 167.755 63.6399C168.195 63.7408 168.877 63.841 169.802 63.9524H178.683C181.163 63.9509 182.407 63.3762 182.407 62.2178ZM200.821 52.1908C200.821 53.0856 200.376 53.533 199.478 53.533H197.84C195.161 53.533 193.825 54.2207 193.825 55.5969V65.6412C193.825 66.5473 193.384 67 192.505 67H191.521C190.64 67 190.2 66.5428 190.2 65.6239L190.249 55.5969C190.262 53.7409 191.156 52.3708 192.938 51.4873C194.304 50.8101 196.009 50.4689 198.048 50.4689H199.484C200.375 50.4689 200.82 50.9216 200.82 51.8292V52.1908H200.821ZM205.159 53.6505C204.27 53.6505 203.824 53.1978 203.824 52.2902V51.9445C203.824 51.0496 204.27 50.603 205.159 50.603H206.419V47.3423C206.419 46.4474 206.859 46 207.739 46H208.675C209.555 46 209.996 46.4474 209.996 47.3423V50.603H215.664C216.555 50.603 217.001 51.0496 217.001 51.9445V52.2902C217.001 53.1978 216.555 53.6505 215.664 53.6505H209.996V65.6404C209.996 66.5466 209.554 66.9992 208.675 66.9992H207.739C206.859 66.9992 206.419 66.5466 206.419 65.6404V53.6505H205.159Z" fill="#0095DA"/>
<path d="M245.868 53.9468C245.868 56.0334 244.832 57.5429 242.758 58.4829C241.24 59.1707 239.31 59.5179 236.951 59.5179H223.799V65.6411C223.799 66.5473 223.35 67 222.453 67H221.329C220.443 67 220.001 66.5473 220.001 65.6411V47.3423C220.001 46.4474 220.444 46 221.329 46H237.127C239.159 46 240.963 46.296 242.541 46.8836C244.761 47.7167 245.867 48.9806 245.867 50.6868V53.9468H245.868ZM242.105 53.812V50.9496C242.105 49.7361 240.455 49.132 237.162 49.132H223.799V56.3678H237.178C238.721 56.3678 239.869 56.2232 240.614 55.9264C241.607 55.5362 242.105 54.8312 242.105 53.812ZM271.486 47.7732C271.486 48.6786 271.039 49.132 270.142 49.132H261.744V65.6411C261.744 66.5473 261.301 67 260.416 67H259.292C258.406 67 257.964 66.5473 257.964 65.6411V49.132H249.611C248.714 49.132 248.265 48.6786 248.265 47.7732V47.3423C248.265 46.4474 248.714 46 249.611 46H270.142C271.039 46 271.486 46.4474 271.486 47.3423V47.7732ZM295.001 47.7732C295.001 48.6786 294.552 49.132 293.655 49.132H285.258V65.6411C285.258 66.5473 284.815 67 283.93 67H282.806C281.92 67 281.478 66.5473 281.478 65.6411V49.132H273.124C272.229 49.132 271.78 48.6786 271.78 47.7732V47.3423C271.78 46.4474 272.229 46 273.124 46H293.655C294.552 46 295.001 46.4474 295.001 47.3423V47.7732Z" fill="#0095DA"/>
<path fill-rule="evenodd" clip-rule="evenodd" d="M14.0157 21H63.9863C71.6947 21 78.001 29.3461 78.001 39.5483V55.4517C78.001 65.6539 71.6947 74 63.9863 74H14.0157C6.30723 74 0.000976562 65.6539 0.000976562 55.4517V39.5483C0.000976562 29.3461 6.30723 21 14.0157 21ZM15.8434 23.8396H62.1578C69.3011 23.8396 75.1471 31.2911 75.1471 40.401V54.599C75.1471 63.7089 69.3018 71.1604 62.1578 71.1604H15.8434C8.70015 71.1604 2.8549 63.7089 2.8549 54.599V40.401C2.8549 31.2911 8.70015 23.8396 15.8434 23.8396Z" fill="white"/>
<path fill-rule="evenodd" clip-rule="evenodd" d="M21.7023 33H56.299C61.6368 33 66.001 37.5663 66.001 43.1484V51.8493C66.001 57.4322 61.636 62 56.299 62H21.7023C16.3659 62 12.001 57.4322 12.001 51.8493V43.1484C12.001 37.5656 16.3659 33 21.7023 33ZM23.5567 35.8988H54.446C59.2094 35.8988 63.1085 39.5529 63.1085 44.0171V50.9792C63.1085 55.4456 59.2094 59.0997 54.446 59.0997H23.5567C18.7895 59.0997 14.8935 55.4456 14.8935 50.9792V44.0171C14.8935 39.5529 18.7895 35.8988 23.5567 35.8988Z" fill="white"/>
<path fill-rule="evenodd" clip-rule="evenodd" d="M19.319 28H59.6815C65.9091 28 71.001 33.9848 71.001 41.2978V52.7007C71.001 60.0167 65.9091 66 59.6815 66H19.319C13.0936 66 8.00098 60.0167 8.00098 52.7007V41.2985C8.00098 33.9848 13.0936 28 19.319 28ZM19.5651 28.3793H59.4376C65.5874 28.3793 70.6192 34.2431 70.6192 41.4122V52.5871C70.6192 59.7562 65.5874 65.6215 59.4376 65.6215H19.5651C13.4138 65.6215 8.38205 59.7562 8.38205 52.5871V41.4122C8.38205 34.2431 13.4138 28.3793 19.5651 28.3793Z" fill="white"/>
<path fill-rule="evenodd" clip-rule="evenodd" d="M78.5471 0H105.455C109.606 0 113.001 4.56618 113.001 10.1489V18.8511C113.001 24.4323 109.606 29 105.455 29H78.5471C74.3978 29 71.001 24.4331 71.001 18.8511V10.1489C71.0017 4.56618 74.3978 0 78.5471 0ZM79.5316 1.55334H104.47C108.317 1.55334 111.464 5.63078 111.464 10.6144V18.3834C111.464 23.3677 108.317 27.4452 104.47 27.4452H79.5316C75.6863 27.4452 72.5393 23.3677 72.5393 18.3834V10.6144C72.5393 5.63153 75.6863 1.55334 79.5316 1.55334Z" fill="white"/>
<path fill-rule="evenodd" clip-rule="evenodd" d="M83.0316 7H100.97C103.737 7 106.001 9.36239 106.001 12.2503V16.7504C106.001 19.6383 103.737 22 100.97 22H83.0316C80.2648 22 78.001 19.6383 78.001 16.7504V12.2503C78.001 9.36239 80.2648 7 83.0316 7ZM83.9927 8.49978H100.009C102.479 8.49978 104.501 10.3903 104.501 12.699V16.3002C104.501 18.6097 102.479 20.4995 100.009 20.4995H83.9927C81.5211 20.4995 79.5012 18.6097 79.5012 16.3002V12.699C79.5012 10.391 81.5211 8.49978 83.9927 8.49978Z" fill="white"/>
<path fill-rule="evenodd" clip-rule="evenodd" d="M81.109 4H102.894C106.255 4 109.001 7.14885 109.001 10.9994V17.0006C109.001 20.8511 106.254 24 102.894 24H81.109C77.7496 24 75.001 20.8511 75.001 17.0006V10.9994C75.001 7.14885 77.7489 4 81.109 4ZM81.241 4.19934H102.761C106.081 4.19934 108.796 7.28585 108.796 11.0581V16.9397C108.796 20.7127 106.081 23.7999 102.761 23.7999H81.241C77.9211 23.7999 75.206 20.7134 75.206 16.9397V11.0581C75.206 7.28585 77.9211 4.19934 81.241 4.19934Z" fill="white"/>
<defs>
<linearGradient id="paint0_linear_139_240" x1="2.0009" y1="36.5001" x2="112.001" y2="36.5001" gradientUnits="userSpaceOnUse">
<stop stop-color="#00529C"/>
<stop offset="0.34" stop-color="#0095DA"/>
<stop offset="0.78" stop-color="#54A275"/>
<stop offset="1" stop-color="#75C044"/>
</linearGradient>
</defs>
</svg>
