<svg width="43" height="43" viewBox="0 0 43 43" fill="none" xmlns="http://www.w3.org/2000/svg">
<mask id="mask0_177_641" style="mask-type:alpha" maskUnits="userSpaceOnUse" x="0" y="0" width="43" height="43">
<circle cx="21.0078" cy="21.2588" r="21" fill="#48D288"/>
</mask>
<g mask="url(#mask0_177_641)">
<path d="M5.75116 11.0119C5.75116 11.583 5.70517 12.0987 5.61319 12.5593C5.52122 13.0198 5.37038 13.4122 5.16067 13.7364C4.95464 14.0606 4.68424 14.3093 4.34944 14.4824C4.01833 14.6556 3.61179 14.7422 3.12984 14.7422C2.64053 14.7422 2.23583 14.6593 1.91575 14.4935C1.59568 14.324 1.34182 14.0827 1.15419 13.7695C0.966561 13.4527 0.834116 13.0677 0.756856 12.6145C0.683275 12.1577 0.646484 11.6419 0.646484 11.0672C0.646484 10.4998 0.692472 9.98586 0.784448 9.52533C0.880104 9.06112 1.03094 8.66691 1.23697 8.3427C1.44668 8.01849 1.71709 7.76981 2.0482 7.59665C2.38299 7.42349 2.78953 7.33691 3.2678 7.33691C3.75712 7.33691 4.16181 7.42165 4.48189 7.59112C4.80564 7.75691 5.06134 7.99823 5.24897 8.31507C5.4366 8.62823 5.5672 9.01323 5.64079 9.47007C5.71437 9.92322 5.75116 10.4372 5.75116 11.0119ZM4.28874 11.0837C4.28874 10.7448 4.27954 10.4464 4.26114 10.1885C4.24275 9.92691 4.21332 9.70033 4.17285 9.50875C4.13606 9.31717 4.08823 9.15507 4.02936 9.02244C3.97418 8.88981 3.90612 8.78481 3.82518 8.70744C3.74424 8.62638 3.65226 8.56928 3.54925 8.53612C3.44624 8.50296 3.33219 8.48638 3.2071 8.48638C2.99004 8.48638 2.80976 8.53981 2.66628 8.64665C2.52648 8.74981 2.41426 8.90638 2.32965 9.11638C2.24871 9.32638 2.19168 9.58796 2.15857 9.90112C2.12546 10.2143 2.1089 10.579 2.1089 10.9953C2.1089 11.5037 2.12914 11.9256 2.16961 12.2608C2.21008 12.5924 2.27262 12.8577 2.35724 13.0566C2.44554 13.2519 2.55775 13.3901 2.69387 13.4711C2.83 13.5485 2.99371 13.5872 3.18502 13.5872C3.32851 13.5872 3.45543 13.5651 3.56581 13.5208C3.67618 13.473 3.77183 13.403 3.85277 13.3108C3.93739 13.2187 4.00729 13.1027 4.06248 12.9627C4.11766 12.8227 4.16181 12.6606 4.19492 12.4764C4.23171 12.2922 4.25563 12.084 4.26666 11.8519C4.28138 11.6198 4.28874 11.3637 4.28874 11.0837Z" fill="white"/>
<path d="M12.3483 14.0624C12.3483 14.1656 12.3428 14.254 12.3318 14.3277C12.3207 14.3977 12.3042 14.4548 12.2821 14.499C12.2637 14.5395 12.2416 14.569 12.2159 14.5874C12.1901 14.6058 12.1607 14.6151 12.1276 14.6151H8.18731C8.15788 14.6151 8.13029 14.6058 8.10454 14.5874C8.07878 14.569 8.05487 14.5395 8.0328 14.499C8.0144 14.4548 7.99968 14.3977 7.98865 14.3277C7.97761 14.254 7.97209 14.1656 7.97209 14.0624C7.97209 13.9556 7.97577 13.8672 7.98313 13.7972C7.99417 13.7235 8.00888 13.6645 8.02728 13.6203C8.04935 13.5761 8.07326 13.5448 8.09902 13.5264C8.12477 13.5043 8.1542 13.4932 8.18731 13.4932H9.51729V8.84007L8.36943 9.47559C8.28481 9.51612 8.21491 9.54191 8.15972 9.55296C8.10822 9.56033 8.06591 9.54928 8.0328 9.5198C8.00336 9.48665 7.98313 9.43138 7.97209 9.35401C7.96105 9.27665 7.95553 9.16796 7.95553 9.02796C7.95553 8.93954 7.95737 8.8677 7.96105 8.81244C7.96473 8.75349 7.97393 8.70375 7.98865 8.66323C8.00336 8.6227 8.0236 8.58954 8.04935 8.56375C8.0751 8.53796 8.11006 8.51033 8.1542 8.48086L9.68836 7.48612C9.70676 7.47139 9.72883 7.46033 9.75459 7.45297C9.78402 7.44191 9.82081 7.43455 9.86496 7.43086C9.90911 7.42349 9.96613 7.41981 10.036 7.41981C10.1096 7.41612 10.2034 7.41428 10.3175 7.41428C10.4573 7.41428 10.5695 7.41797 10.6541 7.42533C10.7424 7.42902 10.8086 7.43823 10.8528 7.45297C10.8969 7.46402 10.9264 7.4806 10.9411 7.5027C10.9558 7.52481 10.9632 7.55244 10.9632 7.5856V13.4932H12.1276C12.1607 13.4932 12.1901 13.5043 12.2159 13.5264C12.2453 13.5448 12.2692 13.5761 12.2876 13.6203C12.3097 13.6645 12.3244 13.7235 12.3318 13.7972C12.3428 13.8672 12.3483 13.9556 12.3483 14.0624Z" fill="white"/>
<path d="M19.7891 11.0119C19.7891 11.583 19.7431 12.0987 19.6512 12.5593C19.5592 13.0198 19.4083 13.4122 19.1986 13.7364C18.9926 14.0606 18.7222 14.3093 18.3874 14.4824C18.0563 14.6556 17.6498 14.7422 17.1678 14.7422C16.6785 14.7422 16.2738 14.6593 15.9537 14.4935C15.6336 14.324 15.3798 14.0827 15.1922 13.7695C15.0045 13.4527 14.8721 13.0677 14.7948 12.6145C14.7212 12.1577 14.6845 11.6419 14.6845 11.0672C14.6845 10.4998 14.7304 9.98586 14.8224 9.52533C14.9181 9.06112 15.0689 8.66691 15.2749 8.3427C15.4846 8.01849 15.7551 7.76981 16.0862 7.59665C16.421 7.42349 16.8275 7.33691 17.3058 7.33691C17.7951 7.33691 18.1998 7.42165 18.5199 7.59112C18.8436 7.75691 19.0993 7.99823 19.2869 8.31507C19.4746 8.62823 19.6052 9.01323 19.6787 9.47007C19.7523 9.92322 19.7891 10.4372 19.7891 11.0119ZM18.3267 11.0837C18.3267 10.7448 18.3175 10.4464 18.2991 10.1885C18.2807 9.92691 18.2513 9.70033 18.2108 9.50875C18.174 9.31717 18.1262 9.15507 18.0673 9.02244C18.0121 8.88981 17.9441 8.78481 17.8631 8.70744C17.7822 8.62638 17.6902 8.56928 17.5872 8.53612C17.4842 8.50296 17.3702 8.48638 17.2451 8.48638C17.028 8.48638 16.8477 8.53981 16.7042 8.64665C16.5644 8.74981 16.4522 8.90638 16.3676 9.11638C16.2867 9.32638 16.2296 9.58796 16.1965 9.90112C16.1634 10.2143 16.1469 10.579 16.1469 10.9953C16.1469 11.5037 16.1671 11.9256 16.2076 12.2608C16.248 12.5924 16.3106 12.8577 16.3952 13.0566C16.4835 13.2519 16.5957 13.3901 16.7318 13.4711C16.868 13.5485 17.0317 13.5872 17.223 13.5872C17.3665 13.5872 17.4934 13.5651 17.6038 13.5208C17.7141 13.473 17.8098 13.403 17.8907 13.3108C17.9754 13.2187 18.0453 13.1027 18.1004 12.9627C18.1556 12.8227 18.1998 12.6606 18.2329 12.4764C18.2697 12.2922 18.2936 12.084 18.3046 11.8519C18.3193 11.6198 18.3267 11.3637 18.3267 11.0837Z" fill="white"/>
<path d="M27.0202 11.0119C27.0202 11.583 26.9742 12.0987 26.8823 12.5593C26.7903 13.0198 26.6394 13.4122 26.4297 13.7364C26.2237 14.0606 25.9533 14.3093 25.6185 14.4824C25.2874 14.6556 24.8809 14.7422 24.3989 14.7422C23.9096 14.7422 23.5049 14.6593 23.1848 14.4935C22.8647 14.324 22.6109 14.0827 22.4233 13.7695C22.2356 13.4527 22.1032 13.0677 22.0259 12.6145C21.9523 12.1577 21.9156 11.6419 21.9156 11.0672C21.9156 10.4998 21.9615 9.98586 22.0535 9.52533C22.1492 9.06112 22.3 8.66691 22.506 8.3427C22.7157 8.01849 22.9862 7.76981 23.3173 7.59665C23.6521 7.42349 24.0586 7.33691 24.5369 7.33691C25.0262 7.33691 25.4309 7.42165 25.751 7.59112C26.0747 7.75691 26.3304 7.99823 26.518 8.31507C26.7057 8.62823 26.8363 9.01323 26.9099 9.47007C26.9834 9.92322 27.0202 10.4372 27.0202 11.0119ZM25.5578 11.0837C25.5578 10.7448 25.5486 10.4464 25.5302 10.1885C25.5118 9.92691 25.4824 9.70033 25.4419 9.50875C25.4051 9.31717 25.3573 9.15507 25.2984 9.02244C25.2432 8.88981 25.1752 8.78481 25.0942 8.70744C25.0133 8.62638 24.9213 8.56928 24.8183 8.53612C24.7153 8.50296 24.6013 8.48638 24.4762 8.48638C24.2591 8.48638 24.0788 8.53981 23.9353 8.64665C23.7955 8.74981 23.6833 8.90638 23.5987 9.11638C23.5178 9.32638 23.4608 9.58796 23.4276 9.90112C23.3945 10.2143 23.378 10.579 23.378 10.9953C23.378 11.5037 23.3982 11.9256 23.4387 12.2608C23.4791 12.5924 23.5417 12.8577 23.6263 13.0566C23.7146 13.2519 23.8268 13.3901 23.9629 13.4711C24.0991 13.5485 24.2628 13.5872 24.4541 13.5872C24.5976 13.5872 24.7245 13.5651 24.8349 13.5208C24.9452 13.473 25.0409 13.403 25.1218 13.3108C25.2065 13.2187 25.2764 13.1027 25.3315 12.9627C25.3867 12.8227 25.4309 12.6606 25.464 12.4764C25.5008 12.2922 25.5247 12.084 25.5357 11.8519C25.5504 11.6198 25.5578 11.3637 25.5578 11.0837Z" fill="white"/>
<path d="M41.3736 11.0119C41.3736 11.583 41.3276 12.0987 41.2356 12.5593C41.1436 13.0198 40.9928 13.4122 40.7831 13.7364C40.5771 14.0606 40.3067 14.3093 39.9719 14.4824C39.6408 14.6556 39.2342 14.7422 38.7523 14.7422C38.263 14.7422 37.8583 14.6593 37.5382 14.4935C37.2181 14.324 36.9643 14.0827 36.7766 13.7695C36.589 13.4527 36.4565 13.0677 36.3793 12.6145C36.3057 12.1577 36.2689 11.6419 36.2689 11.0672C36.2689 10.4998 36.3149 9.98586 36.4069 9.52533C36.5025 9.06112 36.6534 8.66691 36.8594 8.3427C37.0691 8.01849 37.3395 7.76981 37.6706 7.59665C38.0054 7.42349 38.4119 7.33691 38.8902 7.33691C39.3795 7.33691 39.7842 7.42165 40.1043 7.59112C40.4281 7.75691 40.6838 7.99823 40.8714 8.31507C41.059 8.62823 41.1896 9.01323 41.2632 9.47007C41.3368 9.92322 41.3736 10.4372 41.3736 11.0119ZM39.9112 11.0837C39.9112 10.7448 39.902 10.4464 39.8836 10.1885C39.8652 9.92691 39.8357 9.70033 39.7953 9.50875C39.7585 9.31717 39.7107 9.15507 39.6518 9.02244C39.5966 8.88981 39.5285 8.78481 39.4476 8.70744C39.3667 8.62638 39.2747 8.56928 39.1717 8.53612C39.0687 8.50296 38.9546 8.48638 38.8295 8.48638C38.6125 8.48638 38.4322 8.53981 38.2887 8.64665C38.1489 8.74981 38.0367 8.90638 37.9521 9.11638C37.8711 9.32638 37.8141 9.58796 37.781 9.90112C37.7479 10.2143 37.7313 10.579 37.7313 10.9953C37.7313 11.5037 37.7516 11.9256 37.792 12.2608C37.8325 12.5924 37.8951 12.8577 37.9797 13.0566C38.068 13.2519 38.1802 13.3901 38.3163 13.4711C38.4524 13.5485 38.6161 13.5872 38.8074 13.5872C38.9509 13.5872 39.0779 13.5651 39.1882 13.5208C39.2986 13.473 39.3943 13.403 39.4752 13.3108C39.5598 13.2187 39.6297 13.1027 39.6849 12.9627C39.7401 12.8227 39.7842 12.6606 39.8173 12.4764C39.8541 12.2922 39.8781 12.084 39.8891 11.8519C39.9038 11.6198 39.9112 11.3637 39.9112 11.0837Z" fill="white"/>
<path d="M5.54145 24.9114C5.54145 25.0146 5.53593 25.103 5.5249 25.1767C5.51386 25.2467 5.4973 25.3038 5.47523 25.348C5.45683 25.3885 5.43476 25.418 5.40901 25.4364C5.38325 25.4548 5.35382 25.4641 5.32071 25.4641H1.38045C1.35102 25.4641 1.32343 25.4548 1.29768 25.4364C1.27192 25.418 1.24801 25.3885 1.22593 25.348C1.20754 25.3038 1.19282 25.2467 1.18179 25.1767C1.17075 25.103 1.16523 25.0146 1.16523 24.9114C1.16523 24.8046 1.16891 24.7162 1.17627 24.6462C1.1873 24.5725 1.20202 24.5135 1.22042 24.4693C1.24249 24.4251 1.2664 24.3938 1.29216 24.3754C1.31791 24.3533 1.34734 24.3422 1.38045 24.3422H2.71043V19.6891L1.56257 20.3246C1.47795 20.3651 1.40805 20.3909 1.35286 20.402C1.30135 20.4093 1.25905 20.3983 1.22593 20.3688C1.1965 20.3356 1.17627 20.2804 1.16523 20.203C1.15419 20.1256 1.14867 20.017 1.14867 19.877C1.14867 19.7885 1.15051 19.7167 1.15419 19.6614C1.15787 19.6025 1.16707 19.5528 1.18179 19.5122C1.1965 19.4717 1.21674 19.4385 1.24249 19.4128C1.26824 19.387 1.30319 19.3593 1.34734 19.3299L2.8815 18.3351C2.8999 18.3204 2.92197 18.3093 2.94773 18.302C2.97716 18.2909 3.01395 18.2835 3.0581 18.2799C3.10225 18.2725 3.15927 18.2688 3.22917 18.2688C3.30275 18.2651 3.39657 18.2633 3.51062 18.2633C3.65042 18.2633 3.76263 18.267 3.84725 18.2743C3.93555 18.278 4.00177 18.2872 4.04592 18.302C4.09007 18.313 4.1195 18.3296 4.13422 18.3517C4.14893 18.3738 4.15629 18.4014 4.15629 18.4346V24.3422H5.32071C5.35382 24.3422 5.38325 24.3533 5.40901 24.3754C5.43844 24.3938 5.46235 24.4251 5.48075 24.4693C5.50282 24.5135 5.51754 24.5725 5.5249 24.6462C5.53593 24.7162 5.54145 24.8046 5.54145 24.9114Z" fill="white"/>
<path d="M12.3483 24.9114C12.3483 25.0146 12.3428 25.103 12.3318 25.1767C12.3207 25.2467 12.3042 25.3038 12.2821 25.348C12.2637 25.3885 12.2416 25.418 12.2159 25.4364C12.1901 25.4548 12.1607 25.4641 12.1276 25.4641H8.18731C8.15788 25.4641 8.13029 25.4548 8.10454 25.4364C8.07878 25.418 8.05487 25.3885 8.0328 25.348C8.0144 25.3038 7.99968 25.2467 7.98865 25.1767C7.97761 25.103 7.97209 25.0146 7.97209 24.9114C7.97209 24.8046 7.97577 24.7162 7.98313 24.6462C7.99417 24.5725 8.00888 24.5135 8.02728 24.4693C8.04935 24.4251 8.07326 24.3938 8.09902 24.3754C8.12477 24.3533 8.1542 24.3422 8.18731 24.3422H9.51729V19.6891L8.36943 20.3246C8.28481 20.3651 8.21491 20.3909 8.15972 20.402C8.10822 20.4093 8.06591 20.3983 8.0328 20.3688C8.00336 20.3356 7.98313 20.2804 7.97209 20.203C7.96105 20.1256 7.95553 20.017 7.95553 19.877C7.95553 19.7885 7.95737 19.7167 7.96105 19.6614C7.96473 19.6025 7.97393 19.5528 7.98865 19.5122C8.00336 19.4717 8.0236 19.4385 8.04935 19.4128C8.0751 19.387 8.11006 19.3593 8.1542 19.3299L9.68836 18.3351C9.70676 18.3204 9.72883 18.3093 9.75459 18.302C9.78402 18.2909 9.82081 18.2835 9.86496 18.2799C9.90911 18.2725 9.96613 18.2688 10.036 18.2688C10.1096 18.2651 10.2034 18.2633 10.3175 18.2633C10.4573 18.2633 10.5695 18.267 10.6541 18.2743C10.7424 18.278 10.8086 18.2872 10.8528 18.302C10.8969 18.313 10.9264 18.3296 10.9411 18.3517C10.9558 18.3738 10.9632 18.4014 10.9632 18.4346V24.3422H12.1276C12.1607 24.3422 12.1901 24.3533 12.2159 24.3754C12.2453 24.3938 12.2692 24.4251 12.2876 24.4693C12.3097 24.5135 12.3244 24.5725 12.3318 24.6462C12.3428 24.7162 12.3483 24.8046 12.3483 24.9114Z" fill="white"/>
<path d="M19.5794 24.9114C19.5794 25.0146 19.5739 25.103 19.5629 25.1767C19.5518 25.2467 19.5353 25.3038 19.5132 25.348C19.4948 25.3885 19.4727 25.418 19.447 25.4364C19.4212 25.4548 19.3918 25.4641 19.3587 25.4641H15.4184C15.389 25.4641 15.3614 25.4548 15.3356 25.4364C15.3099 25.418 15.286 25.3885 15.2639 25.348C15.2455 25.3038 15.2308 25.2467 15.2198 25.1767C15.2087 25.103 15.2032 25.0146 15.2032 24.9114C15.2032 24.8046 15.2069 24.7162 15.2142 24.6462C15.2253 24.5725 15.24 24.5135 15.2584 24.4693C15.2805 24.4251 15.3044 24.3938 15.3301 24.3754C15.3559 24.3533 15.3853 24.3422 15.4184 24.3422H16.7484V19.6891L15.6005 20.3246C15.5159 20.3651 15.446 20.3909 15.3908 20.402C15.3393 20.4093 15.297 20.3983 15.2639 20.3688C15.2345 20.3356 15.2142 20.2804 15.2032 20.203C15.1922 20.1256 15.1866 20.017 15.1866 19.877C15.1866 19.7885 15.1885 19.7167 15.1922 19.6614C15.1958 19.6025 15.205 19.5528 15.2198 19.5122C15.2345 19.4717 15.2547 19.4385 15.2805 19.4128C15.3062 19.387 15.3412 19.3593 15.3853 19.3299L16.9195 18.3351C16.9379 18.3204 16.9599 18.3093 16.9857 18.302C17.0151 18.2909 17.0519 18.2835 17.0961 18.2799C17.1402 18.2725 17.1972 18.2688 17.2671 18.2688C17.3407 18.2651 17.4345 18.2633 17.5486 18.2633C17.6884 18.2633 17.8006 18.267 17.8852 18.2743C17.9735 18.278 18.0397 18.2872 18.0839 18.302C18.128 18.313 18.1575 18.3296 18.1722 18.3517C18.1869 18.3738 18.1943 18.4014 18.1943 18.4346V24.3422H19.3587C19.3918 24.3422 19.4212 24.3533 19.447 24.3754C19.4764 24.3938 19.5003 24.4251 19.5187 24.4693C19.5408 24.5135 19.5555 24.5725 19.5629 24.6462C19.5739 24.7162 19.5794 24.8046 19.5794 24.9114Z" fill="white"/>
<path d="M27.0202 21.8609C27.0202 22.432 26.9742 22.9477 26.8823 23.4083C26.7903 23.8688 26.6394 24.2612 26.4297 24.5854C26.2237 24.9096 25.9533 25.1583 25.6185 25.3314C25.2874 25.5046 24.8809 25.5912 24.3989 25.5912C23.9096 25.5912 23.5049 25.5083 23.1848 25.3425C22.8647 25.173 22.6109 24.9317 22.4233 24.6185C22.2356 24.3017 22.1032 23.9167 22.0259 23.4635C21.9523 23.0067 21.9156 22.4909 21.9156 21.9162C21.9156 21.3488 21.9615 20.8349 22.0535 20.3743C22.1492 19.9101 22.3 19.5159 22.506 19.1917C22.7157 18.8675 22.9862 18.6188 23.3173 18.4457C23.6521 18.2725 24.0586 18.1859 24.5369 18.1859C25.0262 18.1859 25.4309 18.2707 25.751 18.4401C26.0747 18.6059 26.3304 18.8472 26.518 19.1641C26.7057 19.4772 26.8363 19.8622 26.9099 20.3191C26.9834 20.7722 27.0202 21.2862 27.0202 21.8609ZM25.5578 21.9327C25.5578 21.5938 25.5486 21.2954 25.5302 21.0375C25.5118 20.7759 25.4824 20.5493 25.4419 20.3578C25.4051 20.1662 25.3573 20.0041 25.2984 19.8714C25.2432 19.7388 25.1752 19.6338 25.0942 19.5564C25.0133 19.4754 24.9213 19.4183 24.8183 19.3851C24.7153 19.352 24.6013 19.3354 24.4762 19.3354C24.2591 19.3354 24.0788 19.3888 23.9353 19.4956C23.7955 19.5988 23.6833 19.7554 23.5987 19.9654C23.5178 20.1754 23.4608 20.437 23.4276 20.7501C23.3945 21.0633 23.378 21.428 23.378 21.8443C23.378 22.3527 23.3982 22.7746 23.4387 23.1099C23.4791 23.4414 23.5417 23.7067 23.6263 23.9056C23.7146 24.1009 23.8268 24.2391 23.9629 24.3201C24.0991 24.3975 24.2628 24.4362 24.4541 24.4362C24.5976 24.4362 24.7245 24.4141 24.8349 24.3698C24.9452 24.322 25.0409 24.252 25.1218 24.1599C25.2065 24.0677 25.2764 23.9517 25.3315 23.8117C25.3867 23.6717 25.4309 23.5096 25.464 23.3254C25.5008 23.1412 25.5247 22.933 25.5357 22.7009C25.5504 22.4688 25.5578 22.2127 25.5578 21.9327Z" fill="white"/>
<path d="M34.2513 21.8609C34.2513 22.432 34.2053 22.9477 34.1134 23.4083C34.0214 23.8688 33.8705 24.2612 33.6608 24.5854C33.4548 24.9096 33.1844 25.1583 32.8496 25.3314C32.5185 25.5046 32.112 25.5912 31.63 25.5912C31.1407 25.5912 30.736 25.5083 30.4159 25.3425C30.0959 25.173 29.842 24.9317 29.6544 24.6185C29.4667 24.3017 29.3343 23.9167 29.257 23.4635C29.1835 23.0067 29.1467 22.4909 29.1467 21.9162C29.1467 21.3488 29.1926 20.8349 29.2846 20.3743C29.3803 19.9101 29.5311 19.5159 29.7371 19.1917C29.9469 18.8675 30.2173 18.6188 30.5484 18.4457C30.8832 18.2725 31.2897 18.1859 31.768 18.1859C32.2573 18.1859 32.662 18.2707 32.9821 18.4401C33.3058 18.6059 33.5615 18.8472 33.7491 19.1641C33.9368 19.4772 34.0674 19.8622 34.141 20.3191C34.2145 20.7722 34.2513 21.2862 34.2513 21.8609ZM32.7889 21.9327C32.7889 21.5938 32.7797 21.2954 32.7613 21.0375C32.7429 20.7759 32.7135 20.5493 32.673 20.3578C32.6362 20.1662 32.5884 20.0041 32.5295 19.8714C32.4743 19.7388 32.4063 19.6338 32.3253 19.5564C32.2444 19.4754 32.1524 19.4183 32.0494 19.3851C31.9464 19.352 31.8324 19.3354 31.7073 19.3354C31.4902 19.3354 31.3099 19.3888 31.1665 19.4956C31.0267 19.5988 30.9144 19.7554 30.8298 19.9654C30.7489 20.1754 30.6919 20.437 30.6587 20.7501C30.6256 21.0633 30.6091 21.428 30.6091 21.8443C30.6091 22.3527 30.6293 22.7746 30.6698 23.1099C30.7103 23.4414 30.7728 23.7067 30.8574 23.9056C30.9457 24.1009 31.0579 24.2391 31.194 24.3201C31.3302 24.3975 31.4939 24.4362 31.6852 24.4362C31.8287 24.4362 31.9556 24.4141 32.066 24.3698C32.1763 24.322 32.272 24.252 32.3529 24.1599C32.4376 24.0677 32.5075 23.9517 32.5626 23.8117C32.6178 23.6717 32.662 23.5096 32.6951 23.3254C32.7319 23.1412 32.7558 22.933 32.7668 22.7009C32.7816 22.4688 32.7889 22.2127 32.7889 21.9327Z" fill="white"/>
<path d="M41.1639 24.9114C41.1639 25.0146 41.1584 25.103 41.1473 25.1767C41.1363 25.2467 41.1197 25.3038 41.0977 25.348C41.0793 25.3885 41.0572 25.418 41.0314 25.4364C41.0057 25.4548 40.9762 25.4641 40.9431 25.4641H37.0029C36.9734 25.4641 36.9459 25.4548 36.9201 25.4364C36.8943 25.418 36.8704 25.3885 36.8484 25.348C36.83 25.3038 36.8152 25.2467 36.8042 25.1767C36.7932 25.103 36.7877 25.0146 36.7877 24.9114C36.7877 24.8046 36.7913 24.7162 36.7987 24.6462C36.8097 24.5725 36.8244 24.5135 36.8428 24.4693C36.8649 24.4251 36.8888 24.3938 36.9146 24.3754C36.9403 24.3533 36.9698 24.3422 37.0029 24.3422H38.3329V19.6891L37.185 20.3246C37.1004 20.3651 37.0305 20.3909 36.9753 20.402C36.9238 20.4093 36.8815 20.3983 36.8484 20.3688C36.8189 20.3356 36.7987 20.2804 36.7877 20.203C36.7766 20.1256 36.7711 20.017 36.7711 19.877C36.7711 19.7885 36.7729 19.7167 36.7766 19.6614C36.7803 19.6025 36.7895 19.5528 36.8042 19.5122C36.8189 19.4717 36.8392 19.4385 36.8649 19.4128C36.8907 19.387 36.9256 19.3593 36.9698 19.3299L38.5039 18.3351C38.5223 18.3204 38.5444 18.3093 38.5702 18.302C38.5996 18.2909 38.6364 18.2835 38.6805 18.2799C38.7247 18.2725 38.7817 18.2688 38.8516 18.2688C38.9252 18.2651 39.019 18.2633 39.133 18.2633C39.2729 18.2633 39.3851 18.267 39.4697 18.2743C39.558 18.278 39.6242 18.2872 39.6683 18.302C39.7125 18.313 39.7419 18.3296 39.7566 18.3517C39.7714 18.3738 39.7787 18.4014 39.7787 18.4346V24.3422H40.9431C40.9762 24.3422 41.0057 24.3533 41.0314 24.3754C41.0609 24.3938 41.0848 24.4251 41.1032 24.4693C41.1253 24.5135 41.14 24.5725 41.1473 24.6462C41.1584 24.7162 41.1639 24.8046 41.1639 24.9114Z" fill="white"/>
<path d="M5.75116 33.1452C5.75116 33.7163 5.70517 34.2321 5.61319 34.6926C5.52122 35.1531 5.37038 35.5455 5.16067 35.8697C4.95464 36.1939 4.68424 36.4426 4.34944 36.6157C4.01833 36.7889 3.61179 36.8755 3.12984 36.8755C2.64053 36.8755 2.23583 36.7926 1.91575 36.6268C1.59568 36.4573 1.34182 36.216 1.15419 35.9028C0.966561 35.586 0.834116 35.201 0.756856 34.7478C0.683275 34.291 0.646484 33.7752 0.646484 33.2005C0.646484 32.6331 0.692472 32.1192 0.784448 31.6586C0.880104 31.1944 1.03094 30.8002 1.23697 30.476C1.44668 30.1518 1.71709 29.9031 2.0482 29.73C2.38299 29.5568 2.78953 29.4702 3.2678 29.4702C3.75712 29.4702 4.16181 29.555 4.48189 29.7244C4.80564 29.8902 5.06134 30.1315 5.24897 30.4484C5.4366 30.7615 5.5672 31.1465 5.64079 31.6034C5.71437 32.0565 5.75116 32.5705 5.75116 33.1452ZM4.28874 33.2171C4.28874 32.8781 4.27954 32.5797 4.26114 32.3218C4.24275 32.0602 4.21332 31.8336 4.17285 31.6421C4.13606 31.4505 4.08823 31.2884 4.02936 31.1557C3.97418 31.0231 3.90612 30.9181 3.82518 30.8407C3.74424 30.7597 3.65226 30.7026 3.54925 30.6694C3.44624 30.6363 3.33219 30.6197 3.2071 30.6197C2.99004 30.6197 2.80976 30.6731 2.66628 30.78C2.52648 30.8831 2.41426 31.0397 2.32965 31.2497C2.24871 31.4597 2.19168 31.7213 2.15857 32.0344C2.12546 32.3476 2.1089 32.7123 2.1089 33.1286C2.1089 33.6371 2.12914 34.0589 2.16961 34.3942C2.21008 34.7257 2.27262 34.991 2.35724 35.1899C2.44554 35.3852 2.55775 35.5234 2.69387 35.6044C2.83 35.6818 2.99371 35.7205 3.18502 35.7205C3.32851 35.7205 3.45543 35.6984 3.56581 35.6542C3.67618 35.6063 3.77183 35.5363 3.85277 35.4442C3.93739 35.352 4.00729 35.236 4.06248 35.096C4.11766 34.956 4.16181 34.7939 4.19492 34.6097C4.23171 34.4255 4.25563 34.2173 4.26666 33.9852C4.28138 33.7531 4.28874 33.4971 4.28874 33.2171Z" fill="white"/>
<path d="M12.3483 36.1957C12.3483 36.2989 12.3428 36.3873 12.3318 36.461C12.3207 36.531 12.3042 36.5881 12.2821 36.6323C12.2637 36.6728 12.2416 36.7023 12.2159 36.7207C12.1901 36.7391 12.1607 36.7484 12.1276 36.7484H8.18731C8.15788 36.7484 8.13029 36.7391 8.10454 36.7207C8.07878 36.7023 8.05487 36.6728 8.0328 36.6323C8.0144 36.5881 7.99968 36.531 7.98865 36.461C7.97761 36.3873 7.97209 36.2989 7.97209 36.1957C7.97209 36.0889 7.97577 36.0005 7.98313 35.9305C7.99417 35.8568 8.00888 35.7978 8.02728 35.7536C8.04935 35.7094 8.07326 35.6781 8.09902 35.6597C8.12477 35.6376 8.1542 35.6265 8.18731 35.6265H9.51729V30.9734L8.36943 31.6089C8.28481 31.6494 8.21491 31.6752 8.15972 31.6863C8.10822 31.6936 8.06591 31.6826 8.0328 31.6531C8.00336 31.62 7.98313 31.5647 7.97209 31.4873C7.96105 31.41 7.95553 31.3013 7.95553 31.1613C7.95553 31.0728 7.95737 31.001 7.96105 30.9457C7.96473 30.8868 7.97393 30.8371 7.98865 30.7965C8.00336 30.756 8.0236 30.7228 8.04935 30.6971C8.0751 30.6713 8.11006 30.6436 8.1542 30.6142L9.68836 29.6194C9.70676 29.6047 9.72883 29.5936 9.75459 29.5863C9.78402 29.5752 9.82081 29.5679 9.86496 29.5642C9.90911 29.5568 9.96613 29.5531 10.036 29.5531C10.1096 29.5494 10.2034 29.5476 10.3175 29.5476C10.4573 29.5476 10.5695 29.5513 10.6541 29.5586C10.7424 29.5623 10.8086 29.5715 10.8528 29.5863C10.8969 29.5973 10.9264 29.6139 10.9411 29.636C10.9558 29.6581 10.9632 29.6857 10.9632 29.7189V35.6265H12.1276C12.1607 35.6265 12.1901 35.6376 12.2159 35.6597C12.2453 35.6781 12.2692 35.7094 12.2876 35.7536C12.3097 35.7978 12.3244 35.8568 12.3318 35.9305C12.3428 36.0005 12.3483 36.0889 12.3483 36.1957Z" fill="white"/>
<path d="M19.7891 33.1452C19.7891 33.7163 19.7431 34.2321 19.6512 34.6926C19.5592 35.1531 19.4083 35.5455 19.1986 35.8697C18.9926 36.1939 18.7222 36.4426 18.3874 36.6157C18.0563 36.7889 17.6498 36.8755 17.1678 36.8755C16.6785 36.8755 16.2738 36.7926 15.9537 36.6268C15.6336 36.4573 15.3798 36.216 15.1922 35.9028C15.0045 35.586 14.8721 35.201 14.7948 34.7478C14.7212 34.291 14.6845 33.7752 14.6845 33.2005C14.6845 32.6331 14.7304 32.1192 14.8224 31.6586C14.9181 31.1944 15.0689 30.8002 15.2749 30.476C15.4846 30.1518 15.7551 29.9031 16.0862 29.73C16.421 29.5568 16.8275 29.4702 17.3058 29.4702C17.7951 29.4702 18.1998 29.555 18.5199 29.7244C18.8436 29.8902 19.0993 30.1315 19.2869 30.4484C19.4746 30.7615 19.6052 31.1465 19.6787 31.6034C19.7523 32.0565 19.7891 32.5705 19.7891 33.1452ZM18.3267 33.2171C18.3267 32.8781 18.3175 32.5797 18.2991 32.3218C18.2807 32.0602 18.2513 31.8336 18.2108 31.6421C18.174 31.4505 18.1262 31.2884 18.0673 31.1557C18.0121 31.0231 17.9441 30.9181 17.8631 30.8407C17.7822 30.7597 17.6902 30.7026 17.5872 30.6694C17.4842 30.6363 17.3702 30.6197 17.2451 30.6197C17.028 30.6197 16.8477 30.6731 16.7042 30.78C16.5644 30.8831 16.4522 31.0397 16.3676 31.2497C16.2867 31.4597 16.2296 31.7213 16.1965 32.0344C16.1634 32.3476 16.1469 32.7123 16.1469 33.1286C16.1469 33.6371 16.1671 34.0589 16.2076 34.3942C16.248 34.7257 16.3106 34.991 16.3952 35.1899C16.4835 35.3852 16.5957 35.5234 16.7318 35.6044C16.868 35.6818 17.0317 35.7205 17.223 35.7205C17.3665 35.7205 17.4934 35.6984 17.6038 35.6542C17.7141 35.6063 17.8098 35.5363 17.8907 35.4442C17.9754 35.352 18.0453 35.236 18.1004 35.096C18.1556 34.956 18.1998 34.7939 18.2329 34.6097C18.2697 34.4255 18.2936 34.2173 18.3046 33.9852C18.3193 33.7531 18.3267 33.4971 18.3267 33.2171Z" fill="white"/>
<path d="M27.0202 33.1452C27.0202 33.7163 26.9742 34.2321 26.8823 34.6926C26.7903 35.1531 26.6394 35.5455 26.4297 35.8697C26.2237 36.1939 25.9533 36.4426 25.6185 36.6157C25.2874 36.7889 24.8809 36.8755 24.3989 36.8755C23.9096 36.8755 23.5049 36.7926 23.1848 36.6268C22.8647 36.4573 22.6109 36.216 22.4233 35.9028C22.2356 35.586 22.1032 35.201 22.0259 34.7478C21.9523 34.291 21.9156 33.7752 21.9156 33.2005C21.9156 32.6331 21.9615 32.1192 22.0535 31.6586C22.1492 31.1944 22.3 30.8002 22.506 30.476C22.7157 30.1518 22.9862 29.9031 23.3173 29.73C23.6521 29.5568 24.0586 29.4702 24.5369 29.4702C25.0262 29.4702 25.4309 29.555 25.751 29.7244C26.0747 29.8902 26.3304 30.1315 26.518 30.4484C26.7057 30.7615 26.8363 31.1465 26.9099 31.6034C26.9834 32.0565 27.0202 32.5705 27.0202 33.1452ZM25.5578 33.2171C25.5578 32.8781 25.5486 32.5797 25.5302 32.3218C25.5118 32.0602 25.4824 31.8336 25.4419 31.6421C25.4051 31.4505 25.3573 31.2884 25.2984 31.1557C25.2432 31.0231 25.1752 30.9181 25.0942 30.8407C25.0133 30.7597 24.9213 30.7026 24.8183 30.6694C24.7153 30.6363 24.6013 30.6197 24.4762 30.6197C24.2591 30.6197 24.0788 30.6731 23.9353 30.78C23.7955 30.8831 23.6833 31.0397 23.5987 31.2497C23.5178 31.4597 23.4608 31.7213 23.4276 32.0344C23.3945 32.3476 23.378 32.7123 23.378 33.1286C23.378 33.6371 23.3982 34.0589 23.4387 34.3942C23.4791 34.7257 23.5417 34.991 23.6263 35.1899C23.7146 35.3852 23.8268 35.5234 23.9629 35.6044C24.0991 35.6818 24.2628 35.7205 24.4541 35.7205C24.5976 35.7205 24.7245 35.6984 24.8349 35.6542C24.9452 35.6063 25.0409 35.5363 25.1218 35.4442C25.2065 35.352 25.2764 35.236 25.3315 35.096C25.3867 34.956 25.4309 34.7939 25.464 34.6097C25.5008 34.4255 25.5247 34.2173 25.5357 33.9852C25.5504 33.7531 25.5578 33.4971 25.5578 33.2171Z" fill="white"/>
<path d="M41.3736 33.1452C41.3736 33.7163 41.3276 34.2321 41.2356 34.6926C41.1436 35.1531 40.9928 35.5455 40.7831 35.8697C40.5771 36.1939 40.3067 36.4426 39.9719 36.6157C39.6408 36.7889 39.2342 36.8755 38.7523 36.8755C38.263 36.8755 37.8583 36.7926 37.5382 36.6268C37.2181 36.4573 36.9643 36.216 36.7766 35.9028C36.589 35.586 36.4565 35.201 36.3793 34.7478C36.3057 34.291 36.2689 33.7752 36.2689 33.2005C36.2689 32.6331 36.3149 32.1192 36.4069 31.6586C36.5025 31.1944 36.6534 30.8002 36.8594 30.476C37.0691 30.1518 37.3395 29.9031 37.6706 29.73C38.0054 29.5568 38.4119 29.4702 38.8902 29.4702C39.3795 29.4702 39.7842 29.555 40.1043 29.7244C40.4281 29.8902 40.6838 30.1315 40.8714 30.4484C41.059 30.7615 41.1896 31.1465 41.2632 31.6034C41.3368 32.0565 41.3736 32.5705 41.3736 33.1452ZM39.9112 33.2171C39.9112 32.8781 39.902 32.5797 39.8836 32.3218C39.8652 32.0602 39.8357 31.8336 39.7953 31.6421C39.7585 31.4505 39.7107 31.2884 39.6518 31.1557C39.5966 31.0231 39.5285 30.9181 39.4476 30.8407C39.3667 30.7597 39.2747 30.7026 39.1717 30.6694C39.0687 30.6363 38.9546 30.6197 38.8295 30.6197C38.6125 30.6197 38.4322 30.6731 38.2887 30.78C38.1489 30.8831 38.0367 31.0397 37.9521 31.2497C37.8711 31.4597 37.8141 31.7213 37.781 32.0344C37.7479 32.3476 37.7313 32.7123 37.7313 33.1286C37.7313 33.6371 37.7516 34.0589 37.792 34.3942C37.8325 34.7257 37.8951 34.991 37.9797 35.1899C38.068 35.3852 38.1802 35.5234 38.3163 35.6044C38.4524 35.6818 38.6161 35.7205 38.8074 35.7205C38.9509 35.7205 39.0779 35.6984 39.1882 35.6542C39.2986 35.6063 39.3943 35.5363 39.4752 35.4442C39.5598 35.352 39.6297 35.236 39.6849 35.096C39.7401 34.956 39.7842 34.7939 39.8173 34.6097C39.8541 34.4255 39.8781 34.2173 39.8891 33.9852C39.9038 33.7531 39.9112 33.4971 39.9112 33.2171Z" fill="white"/>
<path d="M34.215 11.0119C34.215 11.583 34.169 12.0987 34.077 12.5593C33.9851 13.0198 33.8342 13.4122 33.6245 13.7364C33.4185 14.0606 33.1481 14.3093 32.8133 14.4824C32.4822 14.6556 32.0756 14.7422 31.5937 14.7422C31.1044 14.7422 30.6997 14.6593 30.3796 14.4935C30.0595 14.324 29.8057 14.0827 29.618 13.7695C29.4304 13.4527 29.298 13.0677 29.2207 12.6145C29.1471 12.1577 29.1103 11.6419 29.1103 11.0672C29.1103 10.4998 29.1563 9.98586 29.2483 9.52533C29.344 9.06112 29.4948 8.66691 29.7008 8.3427C29.9105 8.01849 30.1809 7.76981 30.5121 7.59665C30.8468 7.42349 31.2534 7.33691 31.7317 7.33691C32.221 7.33691 32.6257 7.42165 32.9457 7.59112C33.2695 7.75691 33.5252 7.99823 33.7128 8.31507C33.9005 8.62823 34.0311 9.01323 34.1046 9.47007C34.1782 9.92322 34.215 10.4372 34.215 11.0119ZM32.7526 11.0837C32.7526 10.7448 32.7434 10.4464 32.725 10.1885C32.7066 9.92691 32.6772 9.70033 32.6367 9.50875C32.5999 9.31717 32.5521 9.15507 32.4932 9.02244C32.438 8.88981 32.37 8.78481 32.289 8.70744C32.2081 8.62638 32.1161 8.56928 32.0131 8.53612C31.9101 8.50296 31.796 8.48638 31.671 8.48638C31.4539 8.48638 31.2736 8.53981 31.1301 8.64665C30.9903 8.74981 30.8781 8.90638 30.7935 9.11638C30.7126 9.32638 30.6555 9.58796 30.6224 9.90112C30.5893 10.2143 30.5728 10.579 30.5728 10.9953C30.5728 11.5037 30.593 11.9256 30.6335 12.2608C30.6739 12.5924 30.7365 12.8577 30.8211 13.0566C30.9094 13.2519 31.0216 13.3901 31.1577 13.4711C31.2939 13.5485 31.4576 13.5872 31.6489 13.5872C31.7924 13.5872 31.9193 13.5651 32.0297 13.5208C32.14 13.473 32.2357 13.403 32.3166 13.3108C32.4012 13.2187 32.4711 13.1027 32.5263 12.9627C32.5815 12.8227 32.6257 12.6606 32.6588 12.4764C32.6956 12.2922 32.7195 12.084 32.7305 11.8519C32.7452 11.6198 32.7526 11.3637 32.7526 11.0837Z" fill="white"/>
<path d="M34.215 33.1452C34.215 33.7163 34.169 34.2321 34.077 34.6926C33.9851 35.1531 33.8342 35.5455 33.6245 35.8697C33.4185 36.1939 33.1481 36.4426 32.8133 36.6157C32.4822 36.7889 32.0756 36.8755 31.5937 36.8755C31.1044 36.8755 30.6997 36.7926 30.3796 36.6268C30.0595 36.4573 29.8057 36.216 29.618 35.9028C29.4304 35.586 29.298 35.201 29.2207 34.7478C29.1471 34.291 29.1103 33.7752 29.1103 33.2005C29.1103 32.6331 29.1563 32.1192 29.2483 31.6586C29.344 31.1944 29.4948 30.8002 29.7008 30.476C29.9105 30.1518 30.1809 29.9031 30.5121 29.73C30.8468 29.5568 31.2534 29.4702 31.7317 29.4702C32.221 29.4702 32.6257 29.555 32.9457 29.7244C33.2695 29.8902 33.5252 30.1315 33.7128 30.4484C33.9005 30.7615 34.0311 31.1465 34.1046 31.6034C34.1782 32.0565 34.215 32.5705 34.215 33.1452ZM32.7526 33.2171C32.7526 32.8781 32.7434 32.5797 32.725 32.3218C32.7066 32.0602 32.6772 31.8336 32.6367 31.6421C32.5999 31.4505 32.5521 31.2884 32.4932 31.1557C32.438 31.0231 32.37 30.9181 32.289 30.8407C32.2081 30.7597 32.1161 30.7026 32.0131 30.6694C31.9101 30.6363 31.796 30.6197 31.671 30.6197C31.4539 30.6197 31.2736 30.6731 31.1301 30.78C30.9903 30.8831 30.8781 31.0397 30.7935 31.2497C30.7126 31.4597 30.6555 31.7213 30.6224 32.0344C30.5893 32.3476 30.5728 32.7123 30.5728 33.1286C30.5728 33.6371 30.593 34.0589 30.6335 34.3942C30.6739 34.7257 30.7365 34.991 30.8211 35.1899C30.9094 35.3852 31.0216 35.5234 31.1577 35.6044C31.2939 35.6818 31.4576 35.7205 31.6489 35.7205C31.7924 35.7205 31.9193 35.6984 32.0297 35.6542C32.14 35.6063 32.2357 35.5363 32.3166 35.4442C32.4012 35.352 32.4711 35.236 32.5263 35.096C32.5815 34.956 32.6257 34.7939 32.6588 34.6097C32.6956 34.4255 32.7195 34.2173 32.7305 33.9852C32.7452 33.7531 32.7526 33.4971 32.7526 33.2171Z" fill="white"/>
</g>
</svg>
