<svg width="43" height="43" viewBox="0 0 43 43" fill="none" xmlns="http://www.w3.org/2000/svg">
<mask id="mask0_177_608" style="mask-type:alpha" maskUnits="userSpaceOnUse" x="0" y="0" width="43" height="43">
<circle cx="21.8555" cy="21.8516" r="21" fill="#78BE47"/>
</mask>
<g mask="url(#mask0_177_608)">
<path d="M17.8246 34.1495L18.5378 31.9925C18.8587 31.0219 18.3359 29.9729 17.3724 29.6543L14.4799 28.6979C14.0131 28.5436 13.5137 28.5816 13.0737 28.805C12.6337 29.0284 12.3058 29.4104 12.1503 29.8806L11.4372 32.0373C11.2817 32.5076 11.3172 33.0098 11.5373 33.4514C11.7575 33.8931 12.1357 34.2213 12.6025 34.3757L15.495 35.3321C15.9618 35.4865 16.4612 35.4484 16.9012 35.225C17.3412 35.0016 17.6692 34.6195 17.8246 34.1495ZM13.3595 32.5264L13.9853 30.6338L16.6154 31.5035L15.9897 33.396L13.3595 32.5264Z" fill="white" stroke="#78BE47" stroke-width="0.75"/>
<path d="M25.8861 32.4727L22.9936 31.5163C22.5268 31.3619 22.0274 31.4 21.5875 31.6234C21.1475 31.8467 20.8196 32.2288 20.6641 32.6989L19.9508 34.8558C19.63 35.8265 20.1527 36.8753 21.1162 37.194L24.0087 38.1505C24.4905 38.3096 24.9927 38.2567 25.4145 38.0426C25.8363 37.8285 26.1777 37.4533 26.3382 36.9679L27.0514 34.8109C27.2069 34.3407 27.1712 33.8385 26.9511 33.3969C26.7312 32.9552 26.3529 32.6271 25.8861 32.4727ZM24.5034 36.2145L21.8733 35.3448L22.4991 33.4523L25.1291 34.3218L24.5034 36.2145Z" fill="white" stroke="#78BE47" stroke-width="0.75"/>
<path d="M17.056 20.8952C16.0927 20.5768 15.0477 21.1071 14.7265 22.0777L14.0134 24.2348C13.6926 25.2054 14.2153 26.2543 15.1787 26.573L18.0713 27.5294C18.553 27.6886 19.0551 27.6356 19.4769 27.4215C19.8987 27.2074 20.2403 26.8321 20.4008 26.3467L21.1139 24.1899C21.4348 23.2194 20.912 22.1704 19.9486 21.8518L17.056 20.8952ZM18.5659 25.5934L15.9358 24.7238L16.5616 22.8311L19.1917 23.7008L18.5659 25.5934Z" fill="white" stroke="#78BE47" stroke-width="0.75"/>
<path d="M23.6982 29.3864L26.5907 30.3428C27.0724 30.502 27.5746 30.4491 27.9964 30.2349C28.4183 30.0208 28.7598 29.6455 28.9203 29.1601L29.6335 27.0033C29.9543 26.0326 29.4315 24.9837 28.468 24.665L25.5756 23.7087C24.6121 23.3902 23.5671 23.9206 23.2461 24.8912L22.5328 27.0482C22.3773 27.5185 22.413 28.0206 22.6331 28.4623C22.8531 28.9038 23.2315 29.2321 23.6982 29.3864ZM25.081 25.6447L27.7111 26.5143L27.0853 28.4069L24.4552 27.5372L25.081 25.6447Z" fill="white" stroke="#78BE47" stroke-width="0.75"/>
<path d="M13.0454 0.570885C13.3887 0.223023 13.3662 -0.334911 12.9951 -0.675316C11.9549 -1.62977 11.558 -3.0791 11.984 -4.36753C12.4101 -5.65595 13.5927 -6.5831 14.9969 -6.72933C15.4977 -6.78142 15.8484 -7.21596 15.7801 -7.69993C15.7118 -8.18389 15.2506 -8.53386 14.7497 -8.48159C12.6473 -8.26273 10.8765 -6.87443 10.2384 -4.94473C9.60035 -3.01503 10.1946 -0.844881 11.752 0.584298C11.8545 0.678306 11.9727 0.745968 12.0975 0.787243C12.425 0.895329 12.7969 0.822687 13.0454 0.570885Z" fill="white" stroke="#78BE47" stroke-width="0.75"/>
<path d="M16.3112 0.508342C16.4283 0.613036 16.5627 0.688885 16.7045 0.735778C17.0759 0.858581 17.4962 0.782692 17.7745 0.508205C18.1591 0.128871 18.1274 -0.485943 17.7037 -0.865043C17.1843 -1.32981 16.9809 -2.02959 17.1854 -2.6481C17.39 -3.26661 17.9705 -3.70707 18.6645 -3.77064C19.2307 -3.82243 19.6226 -4.29715 19.54 -4.831C19.4574 -5.36481 18.9315 -5.75536 18.3653 -5.70371C16.882 -5.56793 15.641 -4.62566 15.2037 -3.30335C14.7666 -1.98114 15.2012 -0.485016 16.3112 0.508342Z" fill="white" stroke="#78BE47" stroke-width="0.75"/>
<path d="M32.3807 1.46447C32.323 0.948515 32.6863 0.475807 33.1922 0.408617C34.6103 0.220053 35.8232 -0.798399 36.2819 -2.18593C36.7407 -3.57346 36.3741 -5.11428 35.3479 -6.11106C34.9818 -6.46656 34.9719 -7.06267 35.3258 -7.44252C35.6797 -7.82238 36.2632 -7.84211 36.6292 -7.48643C38.1657 -5.99395 38.7147 -3.68677 38.0276 -1.60873C37.3405 0.469305 35.5244 1.99438 33.401 2.27681C33.2613 2.29535 33.1254 2.28123 33.0006 2.23996C32.6732 2.13161 32.4223 1.83787 32.3807 1.46447Z" fill="white" stroke="#78BE47" stroke-width="0.75"/>
<path d="M29.7873 2.43501C29.6288 2.45591 29.4746 2.43981 29.3328 2.39292C28.9614 2.27013 28.6763 1.93716 28.6287 1.51422C28.5628 0.929716 28.9747 0.39453 29.5487 0.318818C30.2524 0.225941 30.8538 -0.27793 31.081 -0.965077C31.3082 -1.65222 31.1256 -2.4152 30.6161 -2.90922C30.2004 -3.31221 30.1887 -3.98747 30.59 -4.41749C30.9913 -4.84753 31.6534 -4.86932 32.0693 -4.4664C33.1584 -3.41057 33.5482 -1.77895 33.0625 -0.309897C32.5768 1.15894 31.2912 2.23633 29.7873 2.43501Z" fill="white" stroke="#78BE47" stroke-width="0.75"/>
<path fill-rule="evenodd" clip-rule="evenodd" d="M25.0166 1.64259C25.105 1.37536 25.0106 1.10378 24.8058 1.03604L23.7067 0.672645C23.5019 0.604908 23.2642 0.766724 23.1759 1.03395L20.5442 8.99291L22.385 9.60155L25.0166 1.64259ZM24.3886 -0.901575L25.1303 -0.656334C26.3151 -0.264553 26.9374 0.967503 26.5468 2.14856L23.9152 10.1075L23.8232 10.3857C24.1846 10.6854 24.3444 11.1932 24.186 11.6722L22.9424 15.4331L28.1645 17.1599L29.282 13.7802C29.5197 13.0614 30.2722 12.6615 30.9594 12.8887L34.1432 13.9414C34.8304 14.1686 35.1962 14.9383 34.9585 15.6571L33.841 19.0369L33.9507 19.0732C34.7814 19.3477 35.4537 19.9345 35.8438 20.7255C36.2339 21.5164 36.295 22.4166 36.0159 23.2606L28.4186 44.9725C28.2405 45.5111 27.6663 45.8056 27.1363 45.6303C26.6062 45.4549 26.3208 44.8762 26.4988 44.3377L34.0962 22.6257C34.203 22.3028 34.1796 21.9582 34.0303 21.6555C33.8811 21.3529 33.6237 21.1282 33.3059 21.0231L16.1056 15.3358C15.7878 15.2307 15.4474 15.2576 15.147 15.4117C14.8467 15.5657 14.6225 15.8284 14.5157 16.1514L6.7575 39.6146C4.94417 45.0987 7.92523 50.8173 13.3237 52.6023C18.7222 54.3875 22.9356 53.8127 24.7489 48.3285L25.2166 46.914C25.3946 46.3755 25.9689 46.081 26.4988 46.2563C27.0291 46.4316 27.3145 47.0103 27.1363 47.5489L26.6686 48.9634C25.6652 51.9979 25.0398 52.3147 22.7082 53.496L22.708 53.4961C22.5197 53.5915 22.3203 53.6925 22.1086 53.8011C19.276 55.254 15.9074 55.6201 12.679 54.5526C6.22211 52.4176 2.66912 45.5392 4.83793 38.98L12.5962 15.5167C13.1503 13.8411 14.8959 12.8928 16.5541 13.3275L17.7997 9.56057C17.9578 9.08247 18.3874 8.77029 18.8552 8.74404L18.9475 8.46493L21.5791 0.50597C21.9696 -0.67509 23.2037 -1.29336 24.3886 -0.901575ZM31.9272 18.4041L32.8892 15.4946L31.0403 14.8833L30.0783 17.7927L31.9272 18.4041ZM22.3049 11.6619L21.2436 14.8714L18.2549 13.8831L19.3161 10.6736L22.3049 11.6619Z" fill="white"/>
<path d="M24.8058 1.03604L24.6522 1.38011L24.6522 1.38011L24.8058 1.03604ZM25.0166 1.64259L25.3846 1.72452L25.3846 1.72452L25.0166 1.64259ZM23.7067 0.672645L23.5532 1.01671L23.7067 0.672645ZM23.1759 1.03395L22.8079 0.952007L22.8079 0.952007L23.1759 1.03395ZM20.5442 8.99291L20.1762 8.91097L20.0704 9.23106L20.3907 9.33697L20.5442 8.99291ZM22.385 9.60155L22.2314 9.94561L22.6234 10.0752L22.753 9.68349L22.385 9.60155ZM25.1303 -0.656334L24.9767 -0.312269L25.1303 -0.656334ZM24.3886 -0.901575L24.5421 -1.24564L24.3886 -0.901575ZM26.5468 2.14856L26.1788 2.06662L26.1788 2.06662L26.5468 2.14856ZM23.9152 10.1075L23.5472 10.0256L23.9152 10.1075ZM23.8232 10.3857L23.4552 10.3037L23.3825 10.5236L23.5551 10.6667L23.8232 10.3857ZM24.186 11.6722L24.554 11.7542L24.186 11.6722ZM22.9424 15.4331L22.5744 15.3512L22.4686 15.6713L22.7889 15.7772L22.9424 15.4331ZM28.1645 17.1599L28.0109 17.5039L28.403 17.6336L28.5325 17.2418L28.1645 17.1599ZM29.282 13.7802L29.65 13.8621L29.282 13.7802ZM30.9594 12.8887L30.8059 13.2327L30.9594 12.8887ZM34.1432 13.9414L34.2967 13.5973L34.1432 13.9414ZM34.9585 15.6571L35.3265 15.7391L34.9585 15.6571ZM33.841 19.0369L33.473 18.955L33.3671 19.275L33.6874 19.381L33.841 19.0369ZM33.9507 19.0732L33.7972 19.4172L33.7972 19.4173L33.9507 19.0732ZM35.8438 20.7255L35.4911 20.8998L35.8438 20.7255ZM36.0159 23.2606L36.3819 23.3486L36.3839 23.3425L36.0159 23.2606ZM28.4186 44.9725L28.0526 44.8845L28.0506 44.8905L28.4186 44.9725ZM27.1363 45.6303L26.9827 45.9743L26.9827 45.9744L27.1363 45.6303ZM26.4988 44.3377L26.1328 44.2497L26.1308 44.2558L26.4988 44.3377ZM34.0962 22.6257L34.4622 22.7137L34.4642 22.7076L34.0962 22.6257ZM33.3059 21.0231L33.1523 21.3672L33.1523 21.3672L33.3059 21.0231ZM16.1056 15.3358L16.2592 14.9918L16.2592 14.9918L16.1056 15.3358ZM15.147 15.4117L14.9839 15.0957L14.9839 15.0957L15.147 15.4117ZM14.5157 16.1514L14.1477 16.0694L14.5157 16.1514ZM6.7575 39.6146L6.38949 39.5327L6.7575 39.6146ZM13.3237 52.6023L13.4772 52.2583L13.4772 52.2583L13.3237 52.6023ZM24.7489 48.3285L24.3809 48.2466L24.3809 48.2466L24.7489 48.3285ZM25.2166 46.914L24.8486 46.832L24.8486 46.8321L25.2166 46.914ZM26.4988 46.2563L26.3452 46.6004L26.3453 46.6004L26.4988 46.2563ZM27.1363 47.5489L26.7683 47.4668L26.7683 47.4669L27.1363 47.5489ZM26.6686 48.9634L27.0366 49.0453L26.6686 48.9634ZM22.7082 53.496L22.5471 53.1789L22.5436 53.1808L22.7082 53.496ZM22.708 53.4961L22.8692 53.8131L22.8727 53.8113L22.708 53.4961ZM22.1086 53.8011L21.9455 53.4851L22.1086 53.8011ZM12.679 54.5526L12.8326 54.2085L12.679 54.5526ZM4.83793 38.98L5.20594 39.062L4.83793 38.98ZM12.5962 15.5167L12.2282 15.4347L12.2282 15.4347L12.5962 15.5167ZM16.5541 13.3275L16.4232 13.6783L16.8005 13.7772L16.9221 13.4095L16.5541 13.3275ZM17.7997 9.56057L18.1677 9.64251L17.7997 9.56057ZM18.8552 8.74404L18.8471 9.10686L19.1357 9.09066L19.2232 8.82598L18.8552 8.74404ZM18.9475 8.46493L18.5794 8.38299L18.9475 8.46493ZM21.5791 0.50597L21.2111 0.424031L21.5791 0.50597ZM31.9272 18.4041L31.7736 18.7481L32.1657 18.8778L32.2952 18.486L31.9272 18.4041ZM32.8892 15.4946L33.2572 15.5765L33.3631 15.2564L33.0427 15.1505L32.8892 15.4946ZM31.0403 14.8833L31.1938 14.5392L30.8018 14.4096L30.6723 14.8013L31.0403 14.8833ZM30.0783 17.7927L29.7103 17.7108L29.6044 18.0308L29.9248 18.1368L30.0783 17.7927ZM21.2436 14.8714L21.0901 15.2154L21.4821 15.3451L21.6116 14.9533L21.2436 14.8714ZM22.3049 11.6619L22.6729 11.7438L22.7787 11.4237L22.4584 11.3178L22.3049 11.6619ZM18.2549 13.8831L17.8869 13.8012L17.781 14.1213L18.1013 14.2272L18.2549 13.8831ZM19.3161 10.6736L19.4697 10.3296L19.0776 10.1999L18.9481 10.5917L19.3161 10.6736ZM24.6522 1.38011C24.6264 1.37156 24.6392 1.36209 24.6531 1.40209C24.6662 1.43978 24.6694 1.49761 24.6486 1.56065L25.3846 1.72452C25.4521 1.52034 25.4524 1.30876 25.3892 1.12692C25.3268 0.947392 25.19 0.768267 24.9593 0.691978L24.6522 1.38011ZM23.5532 1.01671L24.6522 1.38011L24.9593 0.691978L23.8603 0.32858L23.5532 1.01671ZM23.5439 1.11588C23.5649 1.05236 23.5967 1.02324 23.6069 1.0163C23.6112 1.01336 23.6076 1.01696 23.5953 1.01925C23.5817 1.0218 23.5662 1.02099 23.5532 1.01671L23.8603 0.32858C23.6208 0.249389 23.3744 0.312415 23.1883 0.439074C23.0064 0.562912 22.8752 0.748308 22.8079 0.952007L23.5439 1.11588ZM20.9122 9.07485L23.5439 1.11588L22.8079 0.952007L20.1762 8.91097L20.9122 9.07485ZM22.5385 9.25748L20.6978 8.64884L20.3907 9.33697L22.2314 9.94561L22.5385 9.25748ZM24.6486 1.56065L22.0169 9.51961L22.753 9.68349L25.3846 1.72452L24.6486 1.56065ZM25.2838 -1.0004L24.5421 -1.24564L24.235 -0.55751L24.9767 -0.312269L25.2838 -1.0004ZM26.9149 2.2305C27.3657 0.866945 26.6498 -0.548717 25.2838 -1.0004L24.9767 -0.312269C25.9804 0.0196102 26.509 1.06806 26.1788 2.06662L26.9149 2.2305ZM24.2832 10.1895L26.9149 2.2305L26.1788 2.06662L23.5472 10.0256L24.2832 10.1895ZM24.1912 10.4676L24.2832 10.1895L23.5472 10.0256L23.4552 10.3037L24.1912 10.4676ZM24.554 11.7542C24.7594 11.133 24.5525 10.487 24.0914 10.1046L23.5551 10.6667C23.8168 10.8838 23.9294 11.2534 23.818 11.5903L24.554 11.7542ZM23.3105 15.5151L24.554 11.7542L23.818 11.5903L22.5744 15.3512L23.3105 15.5151ZM28.318 16.8158L23.096 15.0891L22.7889 15.7772L28.0109 17.5039L28.318 16.8158ZM28.5325 17.2418L29.65 13.8621L28.914 13.6982L27.7965 17.0779L28.5325 17.2418ZM29.65 13.8621C29.8243 13.335 30.346 13.0807 30.8059 13.2327L31.1129 12.5446C30.1983 12.2422 29.215 12.7877 28.914 13.6982L29.65 13.8621ZM30.8059 13.2327L33.9897 14.2855L34.2967 13.5973L31.1129 12.5446L30.8059 13.2327ZM33.9897 14.2855C34.482 14.4483 34.7725 15.0249 34.5905 15.5752L35.3265 15.7391C35.6199 14.8518 35.1788 13.889 34.2967 13.5973L33.9897 14.2855ZM34.5905 15.5752L33.473 18.955L34.209 19.1188L35.3265 15.7391L34.5905 15.5752ZM34.1043 18.7291L33.9945 18.6928L33.6874 19.381L33.7972 19.4172L34.1043 18.7291ZM36.1965 20.5512C35.7695 19.6854 35.0291 19.0348 34.1042 18.7291L33.7972 19.4173C34.5337 19.6607 35.1379 20.1836 35.4911 20.8998L36.1965 20.5512ZM36.3839 23.3425C36.6929 22.408 36.6234 21.4168 36.1965 20.5512L35.4911 20.8998C35.8443 21.6159 35.897 22.4253 35.6479 23.1786L36.3839 23.3425ZM28.7846 45.0606L36.3819 23.3486L35.65 23.1725L28.0527 44.8845L28.7846 45.0606ZM26.9827 45.9744C27.729 46.2211 28.5412 45.7962 28.7866 45.0545L28.0506 44.8905C27.9397 45.2259 27.6037 45.39 27.2898 45.2862L26.9827 45.9744ZM26.1308 44.2558C25.8942 44.9713 26.2661 45.7372 26.9827 45.9743L27.2899 45.2862C26.9463 45.1726 26.7473 44.7811 26.8668 44.4197L26.1308 44.2558ZM33.7303 22.5377L26.1329 44.2497L26.8648 44.4258L34.4622 22.7137L33.7303 22.5377ZM33.6776 21.8298C33.7901 22.0577 33.805 22.3115 33.7282 22.5438L34.4642 22.7076C34.601 22.2941 34.5692 21.8586 34.383 21.4812L33.6776 21.8298ZM33.1523 21.3672C33.376 21.4412 33.5653 21.602 33.6776 21.8298L34.383 21.4812C34.1969 21.1037 33.8714 20.8153 33.4594 20.6791L33.1523 21.3672ZM15.9521 15.6799L33.1523 21.3672L33.4594 20.6791L16.2592 14.9918L15.9521 15.6799ZM15.3101 15.7277C15.5053 15.6276 15.7302 15.6066 15.9521 15.6799L16.2592 14.9918C15.8453 14.8549 15.3895 14.8876 14.9839 15.0957L15.3101 15.7277ZM14.8837 16.2333C14.9601 16.0023 15.1144 15.8281 15.3101 15.7277L14.9839 15.0957C14.579 15.3033 14.2849 15.6546 14.1477 16.0694L14.8837 16.2333ZM7.12551 39.6966L14.8837 16.2333L14.1477 16.0694L6.38949 39.5327L7.12551 39.6966ZM13.4772 52.2583C8.25748 50.5324 5.37332 44.9957 7.12551 39.6966L6.38949 39.5327C4.51501 45.2017 7.59298 51.1023 13.1701 52.9464L13.4772 52.2583ZM24.3809 48.2466C23.5019 50.9051 22.0753 52.2926 20.2872 52.847C18.4586 53.4139 16.1539 53.1434 13.4772 52.2583L13.1701 52.9464C15.8919 53.8464 18.3932 54.181 20.4743 53.5358C22.5958 52.878 24.1826 51.2361 25.1169 48.4105L24.3809 48.2466ZM24.8486 46.8321L24.3809 48.2466L25.1169 48.4105L25.5846 46.9959L24.8486 46.8321ZM26.6524 45.9123C25.9062 45.6654 25.0938 46.0904 24.8486 46.832L25.5846 46.9959C25.6955 46.6607 26.0315 46.4966 26.3452 46.6004L26.6524 45.9123ZM27.5043 47.6309C27.741 46.9152 27.3692 46.1493 26.6523 45.9122L26.3453 46.6004C26.6889 46.714 26.8879 47.1054 26.7683 47.4668L27.5043 47.6309ZM27.0366 49.0453L27.5043 47.6308L26.7683 47.4669L26.3006 48.8815L27.0366 49.0453ZM22.8694 53.813C24.0152 53.2325 24.8311 52.8248 25.4657 52.1538C26.1046 51.4781 26.5329 50.5685 27.0366 49.0453L26.3006 48.8815C25.8008 50.3928 25.4148 51.1588 24.9073 51.6955C24.3954 52.2368 23.7329 52.5782 22.5471 53.179L22.8694 53.813ZM22.8727 53.8113L22.8729 53.8112L22.5436 53.1808L22.5433 53.1809L22.8727 53.8113ZM22.2717 54.1171C22.4823 54.0091 22.6808 53.9086 22.8692 53.8131L22.5468 53.1791C22.3586 53.2744 22.1583 53.3759 21.9455 53.4851L22.2717 54.1171ZM12.5255 54.8967C15.8545 55.9974 19.3383 55.6217 22.2717 54.1171L21.9455 53.4851C19.2136 54.8863 15.9603 55.2427 12.8326 54.2085L12.5255 54.8967ZM4.46992 38.8981C2.24039 45.6409 5.88854 52.7021 12.5255 54.8967L12.8326 54.2085C6.55567 52.1331 3.09785 45.4375 5.20594 39.062L4.46992 38.8981ZM12.2282 15.4347L4.46992 38.8981L5.20594 39.062L12.9642 15.5986L12.2282 15.4347ZM16.685 12.9768C14.814 12.4863 12.8465 13.5649 12.2282 15.4347L12.9642 15.5986C13.4541 14.1173 14.9777 13.2994 16.4232 13.6783L16.685 12.9768ZM17.4317 9.47863L16.1861 13.2456L16.9221 13.4095L18.1677 9.64251L17.4317 9.47863ZM18.8633 8.38121C18.2185 8.4174 17.6398 8.84907 17.4317 9.47863L18.1677 9.64251C18.2757 9.31588 18.5563 9.12317 18.8471 9.10686L18.8633 8.38121ZM18.5794 8.38299L18.4872 8.6621L19.2232 8.82598L19.3155 8.54687L18.5794 8.38299ZM21.2111 0.424031L18.5794 8.38299L19.3155 8.54687L21.9471 0.587909L21.2111 0.424031ZM24.5421 -1.24564C23.1484 -1.70647 21.6713 -0.967681 21.2111 0.424031L21.9471 0.587909C22.268 -0.382498 23.259 -0.880245 24.235 -0.55751L24.5421 -1.24564ZM32.2952 18.486L33.2572 15.5765L32.5212 15.4127L31.5592 18.3221L32.2952 18.486ZM33.0427 15.1505L31.1938 14.5392L30.8868 15.2273L32.7357 15.8387L33.0427 15.1505ZM30.6723 14.8013L29.7103 17.7108L30.4463 17.8746L31.4083 14.9652L30.6723 14.8013ZM32.0807 18.06L30.2318 17.4486L29.9248 18.1368L31.7736 18.7481L32.0807 18.06ZM21.6116 14.9533L22.6729 11.7438L21.9368 11.5799L20.8756 14.7894L21.6116 14.9533ZM18.1013 14.2272L21.0901 15.2154L21.3972 14.5273L18.4084 13.5391L18.1013 14.2272ZM18.9481 10.5917L17.8869 13.8012L18.6229 13.9651L19.6841 10.7556L18.9481 10.5917ZM22.4584 11.3178L19.4697 10.3296L19.1626 11.0177L22.1513 12.0059L22.4584 11.3178Z" fill="#78BE47"/>
</g>
</svg>

