<svg width="43" height="43" viewBox="0 0 43 43" fill="none" xmlns="http://www.w3.org/2000/svg">
<mask id="mask0_177_655" style="mask-type:alpha" maskUnits="userSpaceOnUse" x="0" y="0" width="43" height="43">
<circle cx="21.0078" cy="21.2588" r="21" fill="#0095DA"/>
</mask>
<g mask="url(#mask0_177_655)">
<path fill-rule="evenodd" clip-rule="evenodd" d="M-16.0442 12.0479H16.0557C21.0074 12.0479 25.0584 17.6174 25.0584 24.4256V35.0385C25.0584 41.8467 21.0074 47.4163 16.0557 47.4163H-16.0442C-20.9959 47.4163 -25.0469 41.8467 -25.0469 35.0385V24.4256C-25.0469 17.6174 -20.9959 12.0479 -16.0442 12.0479ZM-14.8701 13.9428H14.8811C19.4698 13.9428 23.2251 18.9154 23.2251 24.9947V34.4695C23.2251 40.5487 19.4703 45.5213 14.8811 45.5213H-14.8701C-19.4587 45.5213 -23.2136 40.5487 -23.2136 34.4695V24.9947C-23.2136 18.9154 -19.4587 13.9428 -14.8701 13.9428Z" fill="white"/>
<path fill-rule="evenodd" clip-rule="evenodd" d="M-10.7178 20.8896H11.47C14.8933 20.8896 17.6921 23.6742 17.6921 27.0782V32.384C17.6921 35.7884 14.8928 38.5739 11.47 38.5739H-10.7178C-14.1401 38.5739 -16.9395 35.7884 -16.9395 32.384V27.0782C-16.9395 23.6737 -14.1401 20.8896 -10.7178 20.8896ZM-9.52849 22.6573H10.2816C13.3365 22.6573 15.8371 24.8856 15.8371 27.6079V31.8533C15.8371 34.577 13.3365 36.8053 10.2816 36.8053H-9.52849C-12.5858 36.8053 -15.0844 34.577 -15.0844 31.8533V27.6079C-15.0844 24.8856 -12.5858 22.6573 -9.52849 22.6573Z" fill="white"/>
<path fill-rule="evenodd" clip-rule="evenodd" d="M-12.6061 17.2051H13.3581C17.3641 17.2051 20.6396 21.2668 20.6396 26.2299V33.9687C20.6396 38.9338 17.3641 42.9946 13.3581 42.9946H-12.6061C-16.6108 42.9946 -19.8867 38.9338 -19.8867 33.9687V26.2304C-19.8867 21.2668 -16.6108 17.2051 -12.6061 17.2051ZM-12.4478 17.4625H13.2012C17.1572 17.4625 20.394 21.4421 20.394 26.3075V33.8916C20.394 38.7571 17.1572 42.7377 13.2012 42.7377H-12.4478C-16.4048 42.7377 -19.6416 38.7571 -19.6416 33.8916V26.3075C-19.6416 21.4421 -16.4048 17.4625 -12.4478 17.4625Z" fill="white"/>
<path fill-rule="evenodd" clip-rule="evenodd" d="M31.3971 -10.0586H59.2484C63.5448 -10.0586 67.0596 -5.30123 67.0596 0.514107V9.57924C67.0596 15.3946 63.5448 20.1519 59.2484 20.1519H31.3971C27.1008 20.1519 23.5859 15.3946 23.5859 9.57924V0.514107C23.5859 -5.30123 27.1008 -10.0586 31.3971 -10.0586ZM32.4158 -8.43999H58.2293C62.2107 -8.43999 65.469 -4.19255 65.469 1.00015V9.09319C65.469 14.2859 62.2111 18.5333 58.2293 18.5333H32.4158C28.4345 18.5333 25.1766 14.2859 25.1766 9.09319V1.00015C25.1766 -4.19255 28.4345 -8.43999 32.4158 -8.43999Z" fill="white"/>
<path fill-rule="evenodd" clip-rule="evenodd" d="M35.5118 -2.68848H54.395C57.3085 -2.68848 59.6905 -0.368033 59.6905 2.46862V6.89013C59.6905 9.72716 57.3081 12.0484 54.395 12.0484H35.5118C32.5992 12.0484 30.2168 9.72716 30.2168 6.89013V2.46862C30.2168 -0.368414 32.5992 -2.68848 35.5118 -2.68848ZM36.524 -1.2154H53.3837C55.9836 -1.2154 58.1117 0.641487 58.1117 2.91004V6.44794C58.1117 8.71764 55.9836 10.5745 53.3837 10.5745H36.524C33.9221 10.5745 31.7955 8.71764 31.7955 6.44794V2.91004C31.7955 0.641487 33.9221 -1.2154 36.524 -1.2154Z" fill="white"/>
<path fill-rule="evenodd" clip-rule="evenodd" d="M33.6254 -6.375H56.2851C59.7813 -6.375 62.6399 -2.89353 62.6399 1.36056V7.99385C62.6399 12.2497 59.7813 15.7303 56.2851 15.7303H33.6254C30.1305 15.7303 27.2715 12.2497 27.2715 7.99385V1.36098C27.2715 -2.89353 30.1305 -6.375 33.6254 -6.375ZM33.7636 -6.15438H56.1482C59.6007 -6.15438 62.4256 -2.7433 62.4256 1.42708V7.92775C62.4256 12.0981 59.6007 15.5101 56.1482 15.5101H33.7636C30.3103 15.5101 27.4854 12.0981 27.4854 7.92775V1.42708C27.4854 -2.7433 30.3103 -6.15438 33.7636 -6.15438Z" fill="white"/>
</g>
</svg>
