<svg width="77" height="77" viewBox="0 0 77 77" fill="none" xmlns="http://www.w3.org/2000/svg">
<circle cx="38.5" cy="38.5" r="38.5" fill="#E0F5FF"/>
<path d="M35.5001 47C35.9001 44.2 38.5 42 39.5 41.5C39.6666 41.8333 40.1 43.2 40.5 44C40.9 44.8 41.5 46 42 46.5C43.1667 47.6667 45.5 51.1 45.5 55.5C45.5 61 39.5 63 37.5 63C35.5 63 34.5001 62.5 31.0001 59C28.2001 56.2 30.1667 51.1667 31.5001 49C31.6667 49 32.0001 49.2 32.0001 50C32.0001 50.8 34 52 35 52.5C35 51.8333 35.1001 49.8 35.5001 47Z" fill="#94DDFF"/>
<path d="M57.9222 42.5504L57.8832 42.0318C57.257 34.1283 53.4611 29.1737 50.1123 24.8037C47.0115 20.7569 44.3333 17.2623 44.3333 12.1061C44.3333 11.6921 44.0942 11.3136 43.7149 11.1238C43.3345 10.9329 42.8774 10.9642 42.5316 11.2078C37.5022 14.697 33.3059 20.5778 31.8401 26.189C30.8224 30.0955 30.6878 34.4872 30.6689 37.3877C26.0244 36.4259 24.9723 29.69 24.9612 29.6168C24.9088 29.2674 24.6887 28.9633 24.3684 28.7973C24.0447 28.6334 23.6643 28.6215 23.3362 28.7789C23.0927 28.8932 17.3581 31.7183 17.0245 42.9988C17.0011 43.3742 17 43.7494 17 44.1258C17 55.084 26.1967 64 37.5 64C48.8033 64 58 55.084 58 44.1258C58 43.5758 57.961 43.0626 57.9222 42.5504ZM30.6667 54.7346C30.6667 54.602 30.6656 54.4682 30.6755 54.3044C30.7211 52.6633 31.0426 51.543 31.3952 50.7979C32.0559 52.1738 33.238 53.4385 35.1555 53.4385C35.785 53.4385 36.2945 52.9447 36.2945 52.3344C36.2945 50.7622 36.3279 48.9487 36.7316 47.3119C37.0909 45.8595 37.9494 44.3164 39.0372 43.0787C39.521 44.6853 40.4642 45.9856 41.3851 47.2547C42.7031 49.0705 44.0654 50.9477 44.3046 54.149C44.319 54.3387 44.3335 54.5296 44.3335 54.7345C44.3335 58.6259 41.2684 61.7916 37.5002 61.7916C33.7321 61.7916 30.6667 58.626 30.6667 54.7346ZM44.6975 60.349C45.8797 58.7861 46.6111 56.8542 46.6111 54.7346C46.6111 54.4748 46.5944 54.2332 46.561 53.7814C46.2908 50.1769 44.6747 47.9492 43.2478 45.9836C42.0322 44.3101 40.9834 42.8643 40.9834 40.8134C40.9834 40.394 40.7387 40.0112 40.3516 39.8247C39.9668 39.637 39.502 39.6791 39.1583 39.9325C36.9739 41.5326 35.1521 44.2261 34.516 46.7977C34.1912 48.1165 34.0778 49.543 34.0377 50.716C33.2481 49.8923 33.0033 48.3655 33.0012 48.345C32.9501 47.9903 32.7254 47.6808 32.3973 47.5159C32.0715 47.352 31.6811 47.3477 31.353 47.5115C31.066 47.6539 28.5447 49.0556 28.4001 54.2117C28.3901 54.3865 28.389 54.5611 28.389 54.7347C28.389 56.8543 29.1204 58.7862 30.3026 60.3492C23.8252 57.6375 19.2777 51.3888 19.2777 44.1258C19.2777 43.7947 19.2767 43.4649 19.3 43.0971C19.4957 36.4788 21.6801 33.1966 23.1059 31.7486C24.1003 35.1989 26.7049 39.7092 31.8055 39.7092C32.435 39.7092 32.9444 39.2154 32.9444 38.6051C32.9444 34.9099 33.03 30.6401 34.0488 26.7303C35.2055 22.3009 38.3741 17.5178 42.199 14.2799C42.8341 19.0091 45.4911 22.4767 48.2839 26.12C51.6038 30.4524 55.036 34.9325 55.611 42.187L55.65 42.7153C55.6855 43.1747 55.7223 43.633 55.7223 44.1257C55.7223 51.3888 51.1748 57.6375 44.6975 60.349Z" fill="#0095DA"/>
<path d="M47.4951 32.334C47.4951 32.334 49.5513 33.9832 51 38.5C51.7288 40.7722 51.9844 42.4123 52.0741 43.2833M52 48C52 48 52.0796 47.8779 52.1177 46.8392" stroke="#0095DA" stroke-width="2" stroke-linecap="round" stroke-linejoin="round"/>
</svg>
