<svg width="77" height="77" viewBox="0 0 77 77" fill="none" xmlns="http://www.w3.org/2000/svg">
<circle cx="38.5" cy="38.5" r="38.5" fill="#E0F5FF"/>
<path d="M50.7056 52.5297H53.1077C53.6961 52.5297 54.1667 52.0548 54.1667 51.4611V48.5428C54.1667 47.949 53.6961 47.4741 53.1077 47.4741H50.7056C50.3724 45.7626 49.7056 44.1796 48.7841 42.7843L50.4902 41.0631C50.9018 40.6477 50.9018 39.9651 50.4902 39.5491L48.4408 37.4816C48.0292 37.0661 47.3528 37.0661 46.9411 37.4816L45.2349 39.1931C43.8529 38.2535 42.2842 37.5902 40.5881 37.254V34.8299C40.5881 34.2366 40.1175 33.7617 39.5293 33.7617H36.6369C36.049 33.7617 35.5784 34.2366 35.5784 34.8299V37.254C33.8825 37.5902 32.3137 38.2632 30.9313 39.1931L29.2256 37.4718C28.8134 37.0559 28.137 37.0559 27.7252 37.4718L25.6765 39.5395C25.2647 39.955 25.2647 40.6375 25.6765 41.0529L27.3821 42.7747C26.451 44.1699 25.7942 45.7524 25.4605 47.464H23.0588C22.4705 47.464 22 47.9389 22 48.5326V51.4514C22 52.0451 22.4705 52.52 23.0588 52.52H25.4605L30.588 49.9872C30.588 45.8119 33.9509 42.4186 38.0884 42.4186C42.2254 42.4186 45.5882 45.8119 45.5882 49.9872" fill="#94DDFF"/>
<path d="M63 54.2997V21.6903C63 19.6521 61.3627 18 59.3431 18H18.6569C16.6371 18 15 19.6521 15 21.6903V54.3098C15 56.3474 16.6371 58 18.6569 58H59.3431C61.3627 58 63 56.3377 63 54.2997ZM18.6569 19.7907H59.3431C60.3824 19.7907 61.2254 20.6415 61.2254 21.6903V26.0931H16.7745V21.6903C16.7745 20.6415 17.6175 19.7907 18.6569 19.7907ZM16.7745 54.2997V27.884H61.2254V54.2997C61.2254 55.3484 60.3824 56.1991 59.3431 56.1991H18.6569C17.6175 56.1991 16.7745 55.3484 16.7745 54.2997Z" fill="#0095DA"/>
<path d="M38.3822 41.5371C33.7545 41.5371 30 45.3361 30 49.996C30 50.4907 30.4017 50.8965 30.8919 50.8965C31.3821 50.8965 31.7842 50.4907 31.7842 49.996C31.7842 46.3158 34.745 43.328 38.3923 43.328C42.0391 43.328 44.9999 46.3158 44.9999 49.996C44.9999 50.4907 45.402 50.8965 45.8922 50.8965C46.3824 50.8965 46.7839 50.4907 46.7839 49.996C46.7643 45.3265 43.0099 41.5371 38.3822 41.5371Z" fill="#0095DA"/>
<path d="M54.049 45.7124H52.3529C52.0293 44.4164 51.52 43.1898 50.843 42.0419L52.0393 40.8352C52.4118 40.4589 52.6081 39.9642 52.6081 39.44C52.6081 38.9154 52.4022 38.4207 52.0393 38.0449L49.9904 35.9772C49.2255 35.2053 47.9904 35.2053 47.2355 35.9772L46.0392 37.184C44.9023 36.5015 43.6864 35.997 42.4021 35.6609V33.9686C42.4021 32.8807 41.5293 32 40.4513 32H37.5589C36.4804 32 35.6077 32.8807 35.6077 33.9686V35.6807C34.3239 36.0068 33.108 36.5213 31.9705 37.2038L30.7748 35.997C30.4023 35.6212 29.9121 35.4232 29.3922 35.4232C28.8728 35.4232 28.3826 35.631 28.0097 35.997L25.9608 38.0647C25.5884 38.4405 25.3922 38.9352 25.3922 39.4598C25.3922 39.984 25.5979 40.4787 25.9608 40.855L27.1571 42.0618C26.4808 43.2096 25.9805 44.4361 25.6473 45.7322H23.9512C22.8727 45.7322 22 46.6129 22 47.7013V50.6197C22 51.7081 22.8727 52.5887 23.9512 52.5887H26.3529C26.8431 52.5887 27.2452 52.1828 27.2452 51.6882C27.2452 51.1935 26.8431 50.7877 26.3529 50.7877H23.9512C23.8531 50.7877 23.7746 50.7089 23.7746 50.61V47.6911C23.7746 47.5921 23.8531 47.5134 23.9512 47.5134H26.3529C26.7746 47.5134 27.1471 47.2066 27.2256 46.7912C27.5295 45.2279 28.1375 43.7535 29.0197 42.4279C29.2548 42.0719 29.206 41.5971 28.912 41.2902L27.206 39.5685C27.1667 39.5289 27.1571 39.4797 27.1571 39.4496C27.1571 39.4202 27.1667 39.371 27.206 39.3313L29.2548 37.2633C29.2941 37.2236 29.3434 37.2139 29.3725 37.2139C29.4022 37.2139 29.4511 37.2236 29.4999 37.2633L31.206 38.985C31.51 39.2917 31.9805 39.3313 32.3333 39.0937C33.6469 38.2033 35.108 37.5999 36.6571 37.2831C37.0688 37.2038 37.3727 36.828 37.3727 36.4029V33.9686C37.3727 33.87 37.4512 33.7909 37.5494 33.7909H40.4413C40.5393 33.7909 40.6179 33.87 40.6179 33.9686V36.3928C40.6179 36.8183 40.9218 37.1941 41.3336 37.2734C42.8826 37.5801 44.3431 38.1932 45.6567 39.0839C46.01 39.3211 46.4806 39.2719 46.7846 38.9749L48.4902 37.2536C48.5592 37.184 48.6669 37.184 48.7353 37.2536L50.7847 39.3211C50.8234 39.3608 50.8335 39.4101 50.8335 39.44C50.8335 39.4696 50.8234 39.5193 50.7847 39.5685L49.0786 41.2902C48.7746 41.5971 48.7353 42.0719 48.9708 42.4279C49.8531 43.7535 50.451 45.2279 50.7651 46.7912C50.843 47.2066 51.2159 47.5134 51.6373 47.5134H54.0393C54.1375 47.5134 54.2161 47.5921 54.2161 47.6911V50.61C54.2161 50.7089 54.1375 50.7877 54.0393 50.7877H51.6373C51.1471 50.7877 50.7455 51.1935 50.7455 51.6882C50.7455 52.1828 51.1471 52.5887 51.6373 52.5887H54.0393C55.1179 52.5887 55.9901 51.7081 55.9901 50.6197V47.7013C55.9901 46.5931 55.1179 45.7124 54.049 45.7124Z" fill="#0095DA"/>
<path d="M38.8923 23.7771C39.1273 23.7771 39.3528 23.6785 39.5195 23.51C39.6865 23.3418 39.7842 23.1142 39.7842 22.877C39.7842 22.6394 39.6865 22.4119 39.5195 22.2437C39.3528 22.0756 39.1273 21.9766 38.8923 21.9766C38.6569 21.9766 38.4314 22.0756 38.2647 22.2437C38.0982 22.4119 38 22.6394 38 22.877C38 23.1142 38.0982 23.3418 38.2647 23.51C38.4314 23.6882 38.6569 23.7771 38.8923 23.7771Z" fill="#0095DA"/>
<path d="M38.8918 23.7771C39.1273 23.7771 39.3528 23.6785 39.5194 23.51C39.686 23.3418 39.7841 23.1142 39.7841 22.877C39.7841 22.6394 39.686 22.4119 39.5194 22.2437C39.3528 22.0756 39.1273 21.9766 38.8918 21.9766C38.6567 21.9766 38.4312 22.0756 38.2647 22.2437C38.0977 22.4119 38 22.6394 38 22.877C38 23.1142 38.0977 23.3418 38.2647 23.51C38.4312 23.6882 38.6567 23.7771 38.8918 23.7771Z" fill="#0095DA"/>
</svg>
