<svg width="77" height="77" viewBox="0 0 77 77" fill="none" xmlns="http://www.w3.org/2000/svg">
<circle opacity="0.9" cx="38.5" cy="38.5" r="38.5" fill="#E0F5FF"/>
<path d="M47.7901 32.4962H27.1874C26.473 32.4962 25.8887 31.9228 25.8887 31.2219V17.2294C25.8887 16.5285 26.473 15.9551 27.1874 15.9551H47.7901C48.5044 15.9551 49.0889 16.5285 49.0889 17.2294V31.2219C49.0889 31.9228 48.5044 32.4962 47.7901 32.4962Z" fill="#94DDFF"/>
<path d="M13.7794 56.0109L24.2206 56C25.7353 56 26.9585 54.7895 26.9585 53.3137L26.9585 48.6968C26.9585 47.2106 25.7248 46.0109 24.2206 46.0109H19.9847L19.9847 41.5C19.9847 40.7037 20.6446 40.0454 21.4672 40.0454H36.5155L36.5155 46.0109L32.7379 46.0212C31.2226 46.0212 30 47.2318 30 48.7071L30 53.324C30 54.8108 31.2337 56.0103 32.7379 56.0103L42.2435 56C43.7589 56 44.9815 54.7895 44.9815 53.3137L44.9815 48.6968C44.9815 47.2106 43.7478 46.0109 42.2434 46.0109H38.4846L38.4846 40.0454L53.533 40.035C54.3445 40.035 55.0156 40.6825 55.0156 41.4896L55.0156 46.0005L50.7381 46.0109C49.2231 46.0109 48 47.2215 48 48.6968L48 53.3137C48 54.8004 49.2338 56 50.7381 56H61.2681C62.7828 56 64 54.7895 64 53.3137L64 48.6968C64 47.2106 62.7717 46.0109 61.2681 46.0109L56.9847 46.0005L56.9847 41.4896C56.9847 39.6317 55.4377 38.1134 53.5441 38.1134L38.474 38.1237V33H46.4812C48.4616 33 50.0736 31.4184 50.0736 29.4754V18.5246C50.0736 16.5822 48.4616 15 46.4812 15H28.5081C26.5279 15 24.9154 16.5822 24.9154 18.5246V29.4754C24.9154 31.4184 26.5279 33 28.5081 33H36.5155V38.1134H21.4672C19.5736 38.1134 18.0261 39.6312 18.0261 41.4891L18.0261 46L13.7794 46.0109C12.2646 46.0109 11.042 47.2215 11.042 48.6973L11.042 53.3142C11.042 54.8113 12.2757 56.0109 13.7794 56.0109ZM43.0117 48.768V53.3137C43.0117 53.7388 42.6657 54.0784 42.2329 54.0784L32.7268 54.0887C32.2941 54.0887 31.9481 53.7491 31.9481 53.324V48.7784C31.9481 48.3539 32.2941 48.0143 32.7268 48.0143L42.2329 48.0039C42.6657 48.0039 43.0117 48.3544 43.0117 48.768ZM62.0469 48.7641V53.2392C62.0469 53.6643 61.7009 54.0039 61.2681 54.0039H50.7792C50.3465 54.0039 50 53.6643 50 53.2392V48.7641C50 48.3396 50.3465 48 50.7792 48H61.2681C61.6898 48 62.0469 48.3505 62.0469 48.7641ZM26.874 29.4754V18.5246C26.874 17.6438 27.61 16.9216 28.5081 16.9216H46.4702C47.3684 16.9216 48.1044 17.6438 48.1044 18.5246V29.4754C48.1044 30.3567 47.3684 31.0784 46.4702 31.0784H28.5081C27.5989 31.0784 26.874 30.3567 26.874 29.4754ZM12.9999 48.6968C12.9999 48.2723 13.3461 47.9327 13.7788 47.9327L24.2206 47.943C24.6533 47.943 24.9999 48.2826 24.9999 48.7071V53.2353C24.9999 53.6604 24.6533 54 24.2206 54L13.7788 53.9897C13.3461 53.9897 12.9999 53.65 12.9999 53.225V48.6968Z" fill="#0095DA"/>
<path d="M32.0416 23H42.9585C43.5307 23 44 22.5493 44 21.9998C44 21.4503 43.5307 21 42.9585 21H32.0416C31.4695 21 31 21.4503 31 21.9998C31 22.5493 31.4695 23 32.0416 23Z" fill="#0095DA"/>
<path d="M44 25.9997C44 25.4502 43.5307 25 42.9585 25H32.0416C31.4695 25 31 25.4502 31 25.9997C31 26.5491 31.4695 27 32.0416 27H42.9585C43.5307 27 44 26.5491 44 25.9997Z" fill="#0095DA"/>
</svg>
