<svg width="77" height="77" viewBox="0 0 77 77" fill="none" xmlns="http://www.w3.org/2000/svg">
<circle cx="38.5" cy="38.5" r="38.5" fill="#E0F5FF"/>
<path d="M38.5 12.9375C39.6046 12.9375 40.5 13.8329 40.5 14.9375C40.5 16.0421 39.6046 16.9375 38.5 16.9375C37.3954 16.9375 36.5 16.0421 36.5 14.9375C36.5 13.8329 37.3954 12.9375 38.5 12.9375Z" fill="#0095DA"/>
<path d="M35 18C33.8348 17.5633 33 16.385 33 15C33 13.615 33.8348 12.4367 35 12" stroke="#0095DA" stroke-width="2" stroke-linecap="round"/>
<path d="M33 21C30.6696 20.1266 29 17.7701 29 15C29 12.2299 30.6696 9.87337 33 9" stroke="#0095DA" stroke-width="2" stroke-linecap="round"/>
<path d="M42 18C43.1652 17.5633 44 16.385 44 15C44 13.615 43.1652 12.4367 42 12" stroke="#0095DA" stroke-width="2" stroke-linecap="round"/>
<path d="M44 21C46.3304 20.1266 48 17.7701 48 15C48 12.2299 46.3304 9.87337 44 9" stroke="#0095DA" stroke-width="2" stroke-linecap="round"/>
<path d="M38.6338 42C38.0812 42 37.6253 42.4415 37.6253 42.9766V49.1171L32.127 52.194C31.6573 52.4615 31.4916 53.0502 31.7679 53.5184C31.9613 53.8261 32.2928 54 32.6382 54C32.804 54 32.9836 53.9599 33.1355 53.8662L38.6338 50.7893L44.1321 53.8662C44.284 53.9465 44.4636 54 44.6294 54C44.9748 54 45.3201 53.8261 45.4997 53.5184C45.776 53.0635 45.6102 52.4615 45.1405 52.194L39.6423 49.1171V42.9766C39.6285 42.4415 39.1864 42 38.6338 42Z" fill="#0095DA"/>
<path d="M39.463 21.2304C39.3421 20.7985 38.9484 20.5 38.5 20.5C38.0516 20.5 37.6579 20.7985 37.537 21.2304L34.037 33.7304C33.9527 34.0316 34.0142 34.355 34.2032 34.6043C34.3923 34.8536 34.6871 35 35 35H42C42.3129 35 42.6077 34.8536 42.7968 34.6043C42.9858 34.355 43.0473 34.0316 42.963 33.7304L39.463 21.2304Z" fill="#94DDFF" stroke="#0095DA" stroke-width="2" stroke-linecap="round" stroke-linejoin="round"/>
<path d="M19.5 35.9375C20.6046 35.9375 21.5 36.8329 21.5 37.9375C21.5 39.0421 20.6046 39.9375 19.5 39.9375C18.3954 39.9375 17.5 39.0421 17.5 37.9375C17.5 36.8329 18.3954 35.9375 19.5 35.9375Z" fill="#0095DA"/>
<path d="M16 41C14.8348 40.5633 14 39.385 14 38C14 36.615 14.8348 35.4367 16 35" stroke="#0095DA" stroke-width="2" stroke-linecap="round"/>
<path d="M14 44C11.6696 43.1266 10 40.7701 10 38C10 35.2299 11.6696 32.8734 14 32" stroke="#0095DA" stroke-width="2" stroke-linecap="round"/>
<path d="M23 41C24.1652 40.5633 25 39.385 25 38C25 36.615 24.1652 35.4367 23 35" stroke="#0095DA" stroke-width="2" stroke-linecap="round"/>
<path d="M25 44C27.3304 43.1266 29 40.7701 29 38C29 35.2299 27.3304 32.8734 25 32" stroke="#0095DA" stroke-width="2" stroke-linecap="round"/>
<path d="M20.46 44.72C20.3356 44.2933 19.9444 44 19.5 44C19.0556 44 18.6644 44.2933 18.54 44.72L15.04 56.72C14.9519 57.0222 15.0111 57.3482 15.2 57.6C15.3889 57.8518 15.6852 58 16 58H23C23.3148 58 23.6111 57.8518 23.8 57.6C23.9889 57.3482 24.0481 57.0222 23.96 56.72L20.46 44.72Z" fill="#94DDFF" stroke="#0095DA" stroke-width="2" stroke-linecap="round" stroke-linejoin="round"/>
<path d="M57.5 35.9375C58.6046 35.9375 59.5 36.8329 59.5 37.9375C59.5 39.0421 58.6046 39.9375 57.5 39.9375C56.3954 39.9375 55.5 39.0421 55.5 37.9375C55.5 36.8329 56.3954 35.9375 57.5 35.9375Z" fill="#0095DA"/>
<path d="M54 41C52.8348 40.5633 52 39.385 52 38C52 36.615 52.8348 35.4367 54 35" stroke="#0095DA" stroke-width="2" stroke-linecap="round"/>
<path d="M52 44C49.6696 43.1266 48 40.7701 48 38C48 35.2299 49.6696 32.8734 52 32" stroke="#0095DA" stroke-width="2" stroke-linecap="round"/>
<path d="M61 41C62.1652 40.5633 63 39.385 63 38C63 36.615 62.1652 35.4367 61 35" stroke="#0095DA" stroke-width="2" stroke-linecap="round"/>
<path d="M63 44C65.3304 43.1266 67 40.7701 67 38C67 35.2299 65.3304 32.8734 63 32" stroke="#0095DA" stroke-width="2" stroke-linecap="round"/>
<path d="M58.463 44.2304C58.3421 43.7985 57.9484 43.5 57.5 43.5C57.0516 43.5 56.6579 43.7985 56.537 44.2304L53.037 56.7304C52.9527 57.0316 53.0142 57.355 53.2032 57.6043C53.3923 57.8536 53.6871 58 54 58H61C61.3129 58 61.6077 57.8536 61.7968 57.6043C61.9858 57.355 62.0473 57.0316 61.963 56.7304L58.463 44.2304Z" fill="#94DDFF" stroke="#0095DA" stroke-width="2" stroke-linecap="round" stroke-linejoin="round"/>
</svg>
